<svg width="36" height="36" viewBox="0 0 36 36" fill="none" xmlns="http://www.w3.org/2000/svg">
<path d="M34.8994 9.44479L26.5525 1.09792C25.8446 0.389971 24.9026 0 23.9007 0H12.0966C11.0962 0 10.1542 0.389971 9.44479 1.09792L1.09792 9.44479C0.389971 10.1527 0 11.0947 0 12.0966V23.9007C0 24.9011 0.389971 25.8431 1.09792 26.5525L9.44479 34.8994C10.1527 35.6073 11.0947 35.9973 12.0966 35.9973H23.9007C24.9011 35.9973 25.8431 35.6073 26.5525 34.8994L34.8994 26.5525C35.6073 25.8446 35.9973 24.9026 35.9973 23.9007V12.0966C35.9973 11.0962 35.6073 10.1542 34.8994 9.44479ZM34.4974 23.9007C34.4974 24.4932 34.2574 25.0721 33.839 25.4921L25.4921 33.839C25.0736 34.2574 24.4932 34.4974 23.9007 34.4974H12.0966C11.5041 34.4974 10.9252 34.2574 10.5052 33.839L2.15834 25.4921C1.73987 25.0736 1.49989 24.4932 1.49989 23.9007V12.0966C1.49989 11.5041 1.73987 10.9252 2.15834 10.5052L10.5052 2.15834C10.9237 1.73987 11.5041 1.49989 12.0966 1.49989H23.9007C24.4932 1.49989 25.0721 1.73987 25.4921 2.15834L33.839 10.5052C34.2574 10.9237 34.4974 11.5041 34.4974 12.0966V23.9007ZM25.9061 11.6571L26.9665 12.7176L17.8787 21.8054C17.4317 22.2523 16.8377 22.4983 16.2063 22.4983C15.5748 22.4983 14.9809 22.2523 14.5339 21.8054L9.11332 16.3848L10.1737 15.3244L15.5958 20.745C15.9228 21.0719 16.4913 21.0719 16.8182 20.745L25.9061 11.6571Z" fill="url(#paint0_linear_895_3802)"/>
<defs>
<linearGradient id="paint0_linear_895_3802" x1="35.9973" y1="0" x2="0" y2="35.9973" gradientUnits="userSpaceOnUse">
<stop stop-color="#1BA6DD"/>
<stop offset="0.43" stop-color="#1F7EB0"/>
<stop offset="1" stop-color="#28244B"/>
</linearGradient>
</defs>
</svg>
