<svg width="42" height="42" viewBox="0 0 42 42" fill="none" xmlns="http://www.w3.org/2000/svg">
<path d="M32.5643 23.4283C32.96 23.4283 33.2878 23.434 33.6155 23.4269C34.0685 23.4172 34.3482 23.1733 34.3504 22.7252C34.3609 20.6155 34.3602 18.5056 34.3506 16.3958C34.3486 15.9586 34.0653 15.6686 33.6257 15.6664C31.4433 15.6554 29.2607 15.6561 27.0783 15.6664C26.6579 15.6683 26.3806 15.9297 26.379 16.3108C26.3706 18.4787 26.3617 20.6469 26.3966 22.8144C26.3999 23.0178 26.6765 23.3445 26.8795 23.3904C27.2837 23.4817 27.7249 23.4175 28.1685 23.4175C28.1685 22.6884 28.1666 22.0199 28.1689 21.3514C28.1733 20.0824 29.1557 19.0587 30.3629 19.0623C31.6115 19.0661 32.5608 20.0451 32.5641 21.3343C32.5658 22.0151 32.5643 22.696 32.5643 23.4283ZM28.1683 27.5478C26.9912 27.7147 26.2878 28.4934 26.2855 29.5732C26.2826 30.9262 26.2748 32.2792 26.2897 33.6319C26.295 34.1087 26.3084 34.5956 26.4081 35.0595C27.2616 39.035 31.1231 41.4373 35.1883 40.5403C38.0578 39.9071 40.3763 37.4312 40.6233 34.5507C40.7694 32.8461 40.711 31.1239 40.7173 29.4095C40.7193 28.8603 40.2628 28.4755 39.7321 28.4925C39.206 28.5096 38.8481 28.9087 38.845 29.4897C38.8418 30.0861 38.8509 30.6827 38.842 31.279C38.8351 31.7283 38.5741 31.9986 38.1825 31.9886C37.7907 31.9787 37.5911 31.7459 37.5881 31.2818C37.5842 30.6853 37.5942 30.0888 37.5846 29.4925C37.5751 28.8998 37.1811 28.4919 36.6382 28.4915C36.085 28.4911 35.7085 28.8905 35.705 29.4887C35.7016 30.0852 35.7114 30.6818 35.7017 31.278C35.6944 31.7263 35.4308 31.9982 35.041 31.9881C34.6501 31.978 34.4505 31.7446 34.4477 31.2805C34.4439 30.684 34.454 30.0874 34.4443 29.4912C34.4345 28.9027 34.0342 28.4904 33.4942 28.4915C32.9443 28.4926 32.5687 28.8945 32.5652 29.4939C32.5615 30.1049 32.574 30.7162 32.5604 31.3268C32.5511 31.7419 32.2763 32 31.8981 31.9881C31.5252 31.9762 31.3183 31.7432 31.3083 31.3193C31.3045 31.1594 31.3074 30.9993 31.3074 30.8392C31.3076 27.6824 31.3058 24.5257 31.3103 21.3689C31.3109 20.9422 31.1758 20.5902 30.7785 20.3867C30.1266 20.0528 29.4275 20.5629 29.426 21.3736C29.4217 23.6575 29.4245 25.9415 29.4244 28.2254C29.4244 29.782 29.4281 31.3386 29.4218 32.8952C29.42 33.3341 29.1771 33.5834 28.7897 33.5852C28.3924 33.5869 28.1749 33.3511 28.1697 32.8977C28.1642 32.4177 28.1683 31.9376 28.1683 31.4576V27.5478ZM38.0954 27.7396C38.1055 27.5796 38.1186 27.469 38.1186 27.3584C38.1195 19.3405 38.1215 11.3226 38.1172 3.30466C38.1164 2.05281 37.265 1.24524 35.9805 1.24524C25.1418 1.24506 14.303 1.25877 3.46438 1.22717C2.16962 1.22333 1.24333 2.16951 1.24692 3.40819C1.27047 11.5861 1.25888 19.7641 1.25933 27.9421C1.25933 29.3276 2.08721 30.1445 3.49979 30.1449C10.5113 30.1464 17.5228 30.1457 24.5344 30.1448C24.6919 30.1447 24.8494 30.1318 25.046 30.1231C24.9529 29.1444 25.1333 28.282 25.7366 27.5327C26.3498 26.7713 27.1874 26.4126 28.1429 26.2801V24.6508C27.7791 24.6508 27.4392 24.6518 27.0994 24.6506C25.9483 24.6466 25.1208 23.8518 25.1191 22.7383C25.1157 20.6283 25.1164 18.5184 25.1187 16.4084C25.1199 15.2763 25.9344 14.4483 27.1064 14.4391C29.274 14.4224 31.442 14.4216 33.6095 14.4397C34.7423 14.449 35.5975 15.2744 35.6082 16.3758C35.6288 18.5001 35.6311 20.6249 35.6073 22.7492C35.5948 23.8679 34.7365 24.6467 33.5971 24.6506C33.2604 24.6519 32.9236 24.6508 32.5856 24.6508V27.4419C33.5297 27.0875 34.3552 27.2804 35.0671 27.8899C36.0621 27.1128 36.7191 27.0788 38.0954 27.7396ZM39.3744 27.2471C39.6902 27.2673 39.9491 27.2518 40.1921 27.3048C41.2849 27.5437 41.9776 28.3972 41.9827 29.5031C41.9891 30.9437 42.021 32.3854 41.9772 33.8248C41.8541 37.858 39.0025 41.1525 34.9219 41.834C30.2719 42.6105 25.9519 39.5975 25.1373 35.094C25.0654 34.696 25.0419 34.2865 25.0341 33.8816C25.0187 33.068 25.0295 32.254 25.0295 31.3718H24.4935C17.5118 31.3718 10.5302 31.373 3.5485 31.3709C1.83944 31.3704 0.55663 30.4882 0.142328 29.0184C0.0565921 28.7143 0.00716458 28.3902 0.00689497 28.0753C-0.000294643 19.81 -0.00245186 11.5446 0.00374919 3.27935C0.00536685 1.1501 1.78767 0.00315704 3.37101 0.00708491C14.1948 0.0341436 25.0188 0.0419113 35.8424 1.3962e-05C37.5654 -0.00661978 39.3899 1.11614 39.3802 3.47592C39.3606 8.23423 39.3744 12.9926 39.3744 17.751V27.2471Z" fill="url(#paint0_linear_338_49)"/>
<path d="M12.7124 7.62304C14.9249 7.62304 17.1373 7.62348 19.3499 7.62278C19.9962 7.6226 20.1926 7.43232 20.1993 6.79391C20.2041 6.34282 20.2034 5.89172 20.1996 5.44063C20.1938 4.76626 19.9849 4.56611 19.2872 4.56585C17 4.56497 14.7127 4.5655 12.4255 4.5655C10.3177 4.5655 8.20982 4.56471 6.10201 4.56602C5.42205 4.56637 5.20277 4.78537 5.2016 5.45651C5.20088 5.90761 5.19998 6.3587 5.20187 6.80971C5.20438 7.40902 5.42061 7.62234 6.03011 7.6226C8.25754 7.62365 10.485 7.62304 12.7124 7.62304ZM12.6925 8.84688C10.4356 8.84688 8.17873 8.84854 5.92182 8.84618C4.77031 8.84487 3.95141 8.04882 3.94647 6.93182C3.94404 6.36438 3.94261 5.79702 3.94701 5.22966C3.9551 4.1824 4.7961 3.34829 5.87841 3.34681C10.4221 3.34044 14.9658 3.34131 19.5095 3.34611C20.6065 3.34725 21.4332 4.15002 21.4484 5.21045C21.457 5.80679 21.4569 6.40348 21.4482 6.99982C21.4325 8.07361 20.6227 8.84452 19.5081 8.84592C17.2363 8.84897 14.9644 8.84688 12.6925 8.84688Z" fill="url(#paint1_linear_338_49)"/>
<path d="M13.7038 12.1063H11.7157V13.9668H13.7038V12.1063ZM12.6982 15.2241C12.3552 15.2241 12.0118 15.2325 11.669 15.2224C11.0415 15.2038 10.5323 14.7973 10.4951 14.1913C10.4482 13.4265 10.4482 12.6549 10.495 11.8901C10.5315 11.2908 11.0488 10.8679 11.6683 10.8547C12.3392 10.8403 13.0108 10.8436 13.6819 10.8524C14.404 10.8618 14.9495 11.3702 14.9749 12.0818C14.9978 12.7199 14.9974 13.3599 14.9752 13.9981C14.9504 14.7121 14.4102 15.2103 13.6827 15.2245C13.3547 15.2307 13.0264 15.2255 12.6982 15.2255V15.2241Z" fill="url(#paint2_linear_338_49)"/>
<path d="M11.6991 20.3545H13.6902V18.481H11.6991V20.3545ZM12.6989 21.6028C12.3559 21.6028 12.0126 21.6113 11.6699 21.601C11.0383 21.5819 10.5329 21.181 10.4951 20.5738C10.4476 19.8092 10.4485 19.0378 10.4948 18.2731C10.5306 17.6819 11.0578 17.2457 11.6683 17.2315C12.354 17.2156 13.0405 17.216 13.7262 17.2311C14.4147 17.2462 14.9505 17.7695 14.9749 18.4628C14.9974 19.1008 14.9973 19.7406 14.9752 20.3786C14.9504 21.0932 14.4135 21.588 13.6832 21.6032C13.3553 21.61 13.027 21.6044 12.6989 21.6044V21.6028Z" fill="url(#paint3_linear_338_49)"/>
<path d="M5.22075 13.973H7.16536V12.0987H5.22075V13.973ZM8.44161 13.0335C8.44125 13.3681 8.44934 13.7029 8.43954 14.0372C8.41977 14.7142 7.91227 15.2103 7.21551 15.222C6.54319 15.2333 5.87042 15.233 5.1981 15.2224C4.49163 15.2114 3.96095 14.6948 3.94882 14.0063C3.93767 13.3665 3.93875 12.7262 3.94855 12.0863C3.95924 11.3816 4.49864 10.862 5.22803 10.8523C5.88552 10.8436 6.54328 10.842 7.20068 10.8533C7.91434 10.8655 8.42408 11.3728 8.44071 12.0735C8.44835 12.3933 8.44197 12.7135 8.44161 13.0335Z" fill="url(#paint4_linear_338_49)"/>
<path d="M18.2323 20.3496H20.1786V18.4714H18.2323V20.3496ZM21.449 19.4089C21.4495 19.7434 21.4569 20.0782 21.448 20.4126C21.4297 21.0958 20.9321 21.5879 20.2298 21.6006C19.5426 21.6132 18.8546 21.6134 18.1674 21.5996C17.5078 21.5862 16.9757 21.0763 16.9595 20.4365C16.9425 19.7677 16.9445 19.0979 16.9585 18.4291C16.9723 17.7729 17.5101 17.2457 18.1843 17.2309C18.8714 17.2157 19.5595 17.2143 20.2466 17.2316C20.9067 17.2481 21.4248 17.765 21.4464 18.4052C21.4577 18.7394 21.4483 19.0742 21.449 19.4089Z" fill="url(#paint5_linear_338_49)"/>
<path d="M20.1842 12.103H18.2421V13.9688H20.1842V12.103ZM21.4488 13.0406C21.4489 13.3752 21.4572 13.71 21.4471 14.0443C21.4267 14.7173 20.9151 15.2113 20.2162 15.2223C19.544 15.2329 18.8712 15.2334 18.199 15.2223C17.4922 15.2106 16.9681 14.6934 16.9571 13.9998C16.9469 13.3599 16.9469 12.7197 16.9573 12.0799C16.9682 11.395 17.5008 10.8665 18.198 10.8537C18.8702 10.8414 19.543 10.842 20.2152 10.8536C20.9069 10.8657 21.4264 11.3699 21.4469 12.0371C21.4572 12.3713 21.4488 12.7061 21.4488 13.0406Z" fill="url(#paint6_linear_338_49)"/>
<path d="M7.17668 18.4806H5.23414V20.3545H7.17668V18.4806ZM6.16439 21.603C5.83555 21.6032 5.50645 21.611 5.17797 21.6016C4.49433 21.5821 3.96382 21.0749 3.94989 20.4107C3.93605 19.7564 3.93713 19.1013 3.94935 18.4468C3.96194 17.7686 4.50448 17.2419 5.20286 17.2298C5.87527 17.2181 6.54831 17.216 7.22063 17.2306C7.90131 17.2456 8.4266 17.7651 8.43864 18.4307C8.45077 19.0997 8.45212 19.7694 8.43756 20.4382C8.42318 21.0974 7.91991 21.5794 7.24049 21.6008C6.88209 21.6121 6.52306 21.6028 6.16439 21.603Z" fill="url(#paint7_linear_338_49)"/>
<path d="M20.1805 24.8615H18.2384V26.7701H20.1805V24.8615ZM21.449 25.8085C21.4491 26.1432 21.4576 26.4783 21.4473 26.8126C21.4267 27.4749 20.9397 27.9625 20.2559 27.9792C19.5537 27.9964 18.8502 27.9967 18.148 27.9784C17.4852 27.9612 16.9722 27.448 16.9584 26.7992C16.9446 26.1446 16.9465 25.4893 16.9575 24.8346C16.969 24.1547 17.5041 23.6231 18.2039 23.6065C18.8764 23.5905 19.5499 23.5894 20.2223 23.607C20.9055 23.6247 21.428 24.1461 21.4473 24.8044C21.4571 25.1388 21.449 25.4738 21.449 25.8085Z" fill="url(#paint8_linear_338_49)"/>
<path d="M11.6793 24.8473C11.6793 25.4398 11.6713 26.0026 11.6882 26.5648C11.6906 26.644 11.8116 26.785 11.8812 26.787C12.486 26.8047 13.0917 26.7972 13.6975 26.7972V24.8473H11.6793ZM12.6827 27.983C12.3397 27.983 11.9963 27.9937 11.6539 27.9806C11.0223 27.9565 10.5306 27.5536 10.4925 26.9389C10.4461 26.1888 10.4447 25.4318 10.492 24.6818C10.5318 24.0494 11.07 23.6161 11.7289 23.6051C12.37 23.5945 13.0114 23.5961 13.6525 23.6044C14.3782 23.6137 14.9393 24.1113 14.9726 24.8163C15.0035 25.4681 14.9993 26.1231 14.9742 26.7753C14.9468 27.4842 14.4064 27.9678 13.6668 27.9846C13.3389 27.9921 13.0107 27.9859 12.6827 27.9859V27.983Z" fill="url(#paint9_linear_338_49)"/>
<path d="M5.22011 26.7623H7.16706V24.8519H5.22011V26.7623ZM8.44106 25.8114C8.44079 26.1461 8.44995 26.4811 8.4389 26.8155C8.41715 27.4779 7.93014 27.9628 7.24506 27.9794C6.54282 27.9962 5.83931 27.9969 5.13716 27.9783C4.47616 27.9607 3.96345 27.4448 3.94988 26.7956C3.93622 26.141 3.93757 25.4857 3.94925 24.831C3.96139 24.1524 4.49845 23.6227 5.19935 23.6064C5.87176 23.5907 6.54533 23.5894 7.21765 23.6069C7.89923 23.6247 8.41985 24.1468 8.43944 24.8073C8.44941 25.1416 8.44124 25.4766 8.44106 25.8114Z" fill="url(#paint10_linear_338_49)"/>
<path d="M30.3612 10.8495C31.8386 10.8495 33.3161 10.8486 34.7934 10.8501C35.2874 10.8506 35.6148 11.0988 35.6076 11.459C35.6002 11.8273 35.2794 12.0721 34.7826 12.0725C31.8278 12.0744 28.8731 12.0745 25.9182 12.0724C25.4151 12.072 25.1177 11.8322 25.1202 11.4472C25.1226 11.0569 25.3986 10.8505 25.929 10.8499C27.4064 10.8486 28.8838 10.8495 30.3612 10.8495Z" fill="url(#paint11_linear_338_49)"/>
<path d="M30.3504 5.17784C28.8731 5.17784 27.3957 5.1788 25.9183 5.17731C25.3963 5.1767 25.1155 4.95884 25.1201 4.56666C25.1246 4.18731 25.4252 3.95627 25.9303 3.95601C28.885 3.95461 31.8399 3.95443 34.7946 3.95627C35.2873 3.95653 35.6113 4.20957 35.6081 4.57661C35.6049 4.93824 35.2804 5.17696 34.7826 5.1774C33.3052 5.17871 31.8278 5.17784 30.3504 5.17784Z" fill="url(#paint12_linear_338_49)"/>
<path d="M30.3383 8.59914H25.7681C25.3756 8.59923 25.1488 8.41096 25.1232 8.02917C25.0995 7.67574 25.3274 7.45683 25.7328 7.42454C25.8813 7.41266 26.0313 7.41712 26.1806 7.41712C28.5554 7.41677 30.9301 7.41677 33.3048 7.41694C33.8276 7.41694 34.3505 7.41013 34.873 7.42035C35.3174 7.42907 35.6139 7.67889 35.61 8.01677C35.6061 8.35562 35.3079 8.59766 34.8638 8.59888C33.3553 8.60307 31.8468 8.60045 30.3383 8.60045V8.59914Z" fill="url(#paint13_linear_338_49)"/>
<defs>
<linearGradient id="paint0_linear_338_49" x1="41.9999" y1="1.44729e-05" x2="1.25849" y2="43.1442" gradientUnits="userSpaceOnUse">
<stop stop-color="#1BA6DD"/>
<stop offset="0.43" stop-color="#1F7EB0"/>
<stop offset="1" stop-color="#28244B"/>
</linearGradient>
<linearGradient id="paint1_linear_338_49" x1="41.9998" y1="7.79492e-05" x2="1.25844" y2="43.1443" gradientUnits="userSpaceOnUse">
<stop stop-color="#1BA6DD"/>
<stop offset="0.43" stop-color="#1F7EB0"/>
<stop offset="1" stop-color="#28244B"/>
</linearGradient>
<linearGradient id="paint2_linear_338_49" x1="41.9999" y1="0.000116971" x2="1.25845" y2="43.1444" gradientUnits="userSpaceOnUse">
<stop stop-color="#1BA6DD"/>
<stop offset="0.43" stop-color="#1F7EB0"/>
<stop offset="1" stop-color="#28244B"/>
</linearGradient>
<linearGradient id="paint3_linear_338_49" x1="41.9999" y1="8.39635e-05" x2="1.25846" y2="43.1443" gradientUnits="userSpaceOnUse">
<stop stop-color="#1BA6DD"/>
<stop offset="0.43" stop-color="#1F7EB0"/>
<stop offset="1" stop-color="#28244B"/>
</linearGradient>
<linearGradient id="paint4_linear_338_49" x1="41.9999" y1="0.000109218" x2="1.25845" y2="43.1443" gradientUnits="userSpaceOnUse">
<stop stop-color="#1BA6DD"/>
<stop offset="0.43" stop-color="#1F7EB0"/>
<stop offset="1" stop-color="#28244B"/>
</linearGradient>
<linearGradient id="paint5_linear_338_49" x1="41.9999" y1="7.05771e-05" x2="1.25845" y2="43.1443" gradientUnits="userSpaceOnUse">
<stop stop-color="#1BA6DD"/>
<stop offset="0.43" stop-color="#1F7EB0"/>
<stop offset="1" stop-color="#28244B"/>
</linearGradient>
<linearGradient id="paint6_linear_338_49" x1="41.9999" y1="0.000106683" x2="1.25845" y2="43.1443" gradientUnits="userSpaceOnUse">
<stop stop-color="#1BA6DD"/>
<stop offset="0.43" stop-color="#1F7EB0"/>
<stop offset="1" stop-color="#28244B"/>
</linearGradient>
<linearGradient id="paint7_linear_338_49" x1="41.9999" y1="8.3569e-05" x2="1.25844" y2="43.1443" gradientUnits="userSpaceOnUse">
<stop stop-color="#1BA6DD"/>
<stop offset="0.43" stop-color="#1F7EB0"/>
<stop offset="1" stop-color="#28244B"/>
</linearGradient>
<linearGradient id="paint8_linear_338_49" x1="41.9999" y1="0.000117673" x2="1.25845" y2="43.1443" gradientUnits="userSpaceOnUse">
<stop stop-color="#1BA6DD"/>
<stop offset="0.43" stop-color="#1F7EB0"/>
<stop offset="1" stop-color="#28244B"/>
</linearGradient>
<linearGradient id="paint9_linear_338_49" x1="41.9998" y1="0.000112842" x2="1.25842" y2="43.1443" gradientUnits="userSpaceOnUse">
<stop stop-color="#1BA6DD"/>
<stop offset="0.43" stop-color="#1F7EB0"/>
<stop offset="1" stop-color="#28244B"/>
</linearGradient>
<linearGradient id="paint10_linear_338_49" x1="41.9998" y1="0.000114777" x2="1.25843" y2="43.1443" gradientUnits="userSpaceOnUse">
<stop stop-color="#1BA6DD"/>
<stop offset="0.43" stop-color="#1F7EB0"/>
<stop offset="1" stop-color="#28244B"/>
</linearGradient>
<linearGradient id="paint11_linear_338_49" x1="41.9999" y1="0.000116766" x2="1.25844" y2="43.1443" gradientUnits="userSpaceOnUse">
<stop stop-color="#1BA6DD"/>
<stop offset="0.43" stop-color="#1F7EB0"/>
<stop offset="1" stop-color="#28244B"/>
</linearGradient>
<linearGradient id="paint12_linear_338_49" x1="41.9999" y1="7.90552e-05" x2="1.25845" y2="43.1443" gradientUnits="userSpaceOnUse">
<stop stop-color="#1BA6DD"/>
<stop offset="0.43" stop-color="#1F7EB0"/>
<stop offset="1" stop-color="#28244B"/>
</linearGradient>
<linearGradient id="paint13_linear_338_49" x1="41.9998" y1="6.95132e-05" x2="1.25837" y2="43.1443" gradientUnits="userSpaceOnUse">
<stop stop-color="#1BA6DD"/>
<stop offset="0.43" stop-color="#1F7EB0"/>
<stop offset="1" stop-color="#28244B"/>
</linearGradient>
</defs>
</svg>
