<svg width="35" height="40" viewBox="0 0 35 40" fill="none" xmlns="http://www.w3.org/2000/svg">
<path d="M31.5591 37.008H2.67671V38.2821H31.5591V37.008ZM8.58055 10.5375H25.6278V1.33958H8.58055V10.5375ZM32.8934 35.645V35.3286C32.8934 29.3039 32.8938 23.279 32.8909 17.2543C32.8908 17.1059 32.8625 16.9555 32.8309 16.8097C32.6052 15.769 32.3783 14.7286 32.1455 13.6897C32.0099 13.0848 31.8627 12.4825 31.7244 11.8946H2.5097C2.4724 12.0241 2.42949 12.15 2.40017 12.2791C2.19149 13.1973 1.96478 14.112 1.78467 15.0359C1.6077 15.9441 1.35521 16.8609 1.34886 17.7754C1.30925 23.5661 1.32877 29.3572 1.32877 35.1482V35.645H32.8934ZM26.9726 10.5665H30.051C30.7222 10.5665 31.3934 10.5606 32.0645 10.5687C32.5394 10.5744 32.7905 10.7735 32.8871 11.2096C33.3067 13.1016 33.7248 14.9939 34.1373 16.8873C34.1805 17.0861 34.2026 17.2936 34.2027 17.4971C34.2061 23.5362 34.2054 29.5754 34.2054 35.6145C34.2054 36.8528 34.1512 36.9124 32.8904 37.0025C32.8904 37.5419 32.8913 38.087 32.8902 38.6321C32.8886 39.3812 32.6531 39.6208 31.9119 39.6208C22.0502 39.6213 12.1885 39.6212 2.32671 39.6209C1.56109 39.6208 1.33289 39.3871 1.3319 38.6076C1.33124 38.086 1.33182 37.5643 1.33182 37.0005C1.18531 36.9929 1.05528 36.9825 0.925162 36.9801C0.268237 36.9682 0.0207689 36.7156 0.0172277 36.0443C0.0146748 35.5628 0.0167336 35.0814 0.0167336 34.5999C0.0167336 29.4686 0.0428393 24.3372 0.000592556 19.2063C-0.0118426 17.6959 0.171638 16.2352 0.532588 14.7798C0.818351 13.6275 1.06615 12.4655 1.32539 11.3066C1.45164 10.7422 1.64797 10.5689 2.22427 10.5676C3.7309 10.5644 5.23754 10.5665 6.74417 10.5665H7.24957V10.0679C7.24957 7.05519 7.2494 4.04244 7.24973 1.02977C7.24982 0.222101 7.4692 0.000288926 8.26827 0.000206375C14.1716 -4.12751e-05 20.075 -0.000123825 25.9784 0.000288926C26.7445 0.000371476 26.9723 0.232998 26.9724 1.01401C26.9729 4.02676 26.9726 7.03943 26.9726 10.0521V10.5665Z" fill="url(#paint0_linear_370_50)"/>
<path d="M16.4581 14.5186C15.2408 14.6357 14.1294 14.9045 13.069 15.4559C13.2821 15.837 13.4796 16.1901 13.6923 16.5703C13.3248 16.7853 12.9862 16.9834 12.6138 17.2013C12.3902 16.8232 12.1783 16.4653 11.9557 16.0891C10.9545 16.7833 10.1358 17.5938 9.46822 18.5921C9.84465 18.8219 10.199 19.0381 10.5661 19.2621C10.3433 19.6443 10.1452 19.9843 9.93944 20.3374C9.55254 20.1198 9.20082 19.9219 8.82554 19.7108C8.28555 20.7941 8.00375 21.9033 7.90303 23.1169H9.18888V24.443H7.90171C8.01132 25.65 8.27814 26.7711 8.83509 27.8339C9.21646 27.6166 9.55913 27.4214 9.94018 27.2043C10.1503 27.5687 10.3514 27.9176 10.5677 28.2926C10.179 28.5246 9.82455 28.7361 9.4697 28.9478C10.1685 29.9978 11.2707 31.0773 11.9781 31.4174C12.1862 31.0681 12.3948 30.718 12.6178 30.3437C12.993 30.5673 13.3375 30.7726 13.6917 30.9835C13.4714 31.3732 13.2771 31.7167 13.062 32.0971C14.1403 32.6242 15.2458 32.9331 16.471 33.0155V31.7226H17.7769V33.0313C18.9802 32.9029 20.094 32.642 21.1556 32.0906C20.9409 31.7088 20.7425 31.356 20.5294 30.9771C20.8993 30.7615 21.2383 30.5639 21.6098 30.3473C21.8326 30.7229 22.0449 31.0807 22.2675 31.4561C23.2688 30.7621 24.0863 29.9501 24.7558 28.9532C24.3784 28.7225 24.0244 28.5062 23.6577 28.2821C23.8794 27.9013 24.0772 27.5613 24.2837 27.2065C24.671 27.425 25.0223 27.6232 25.3974 27.8348C25.9331 26.7504 26.2198 25.6425 26.3186 24.428H25.034V23.1019H26.3209C26.2086 21.8959 25.9442 20.7743 25.3865 19.7122C25.0045 19.9313 24.6624 20.1274 24.2836 20.3445C24.0713 19.9757 23.8703 19.6269 23.6562 19.255C24.04 19.0263 24.3879 18.819 24.7647 18.5944C24.0704 17.5965 23.2656 16.7598 22.264 16.0947C22.0357 16.4786 21.8274 16.8286 21.6064 17.1999C21.2293 16.9782 20.8834 16.7749 20.5283 16.5662C20.7516 16.1714 20.9459 15.8281 21.1571 15.455C20.0863 14.9049 18.9737 14.6238 17.752 14.5243V15.8241H16.4581V14.5186ZM17.1775 13.2125C23.3649 13.392 27.6967 18.2774 27.6007 23.8945C27.4954 30.0519 22.6314 34.3939 17.0219 34.3095C10.775 34.2155 6.51251 29.2219 6.62047 23.6323C6.74063 17.4112 11.6714 13.252 17.1775 13.2125Z" fill="url(#paint1_linear_370_50)"/>
<path d="M5.27657 14.5261C4.86967 14.5255 4.61693 14.778 4.6166 15.1858C4.61619 15.5946 4.86827 15.8496 5.27295 15.8496C5.6787 15.8497 5.93341 15.5951 5.93432 15.1887C5.9353 14.7807 5.68322 14.5268 5.27657 14.5261ZM5.31956 13.2239C6.56357 13.3392 7.25755 14.1962 7.21629 15.2418C7.16713 16.4906 6.26331 17.1691 5.25425 17.1379C3.9871 17.0988 3.33668 16.1905 3.32737 15.1543C3.31766 14.0827 4.29617 13.1761 5.31956 13.2239Z" fill="url(#paint2_linear_370_50)"/>
<path d="M22.9986 2.67215H15.8073V3.93624H22.9986V2.67215Z" fill="url(#paint3_linear_370_50)"/>
<path d="M22.9942 5.30368H15.8175V6.57355H22.9942V5.30368Z" fill="url(#paint4_linear_370_50)"/>
<path d="M15.8173 7.95363H23.0086V9.22119H15.8173V7.95363Z" fill="url(#paint5_linear_370_50)"/>
<path d="M13.796 2.67026H11.2133V3.93815H13.796V2.67026Z" fill="url(#paint6_linear_370_50)"/>
<path d="M13.8022 5.30566H11.2127V6.57141H13.8022V5.30566Z" fill="url(#paint7_linear_370_50)"/>
<path d="M11.2281 7.9538H13.8032V9.22103H11.2281V7.9538Z" fill="url(#paint8_linear_370_50)"/>
<path d="M16.4551 17.1797H17.7423C17.7508 17.3035 17.766 17.4211 17.7661 17.5388C17.7675 19.5176 17.7624 21.4964 17.7708 23.4752C17.7727 23.9129 17.6303 24.2212 17.2344 24.4498C15.7807 25.2889 14.341 26.1524 12.8568 27.0298C12.6449 26.6723 12.4449 26.3348 12.2246 25.963C12.3554 25.8732 12.4702 25.7844 12.5939 25.7111C13.7455 25.0296 14.8937 24.3423 16.0547 23.6774C16.3455 23.5108 16.4697 23.3321 16.4652 22.977C16.4431 21.2047 16.4551 19.4318 16.4551 17.6591V17.1797Z" fill="url(#paint9_linear_370_50)"/>
<defs>
<linearGradient id="paint0_linear_370_50" x1="34.2055" y1="-1.0445e-06" x2="-0.0939121" y2="39.5397" gradientUnits="userSpaceOnUse">
<stop stop-color="#1BA6DD"/>
<stop offset="0.43" stop-color="#1F7EB0"/>
<stop offset="1" stop-color="#28244B"/>
</linearGradient>
<linearGradient id="paint1_linear_370_50" x1="34.2055" y1="3.387e-06" x2="-0.0939224" y2="39.5397" gradientUnits="userSpaceOnUse">
<stop stop-color="#1BA6DD"/>
<stop offset="0.43" stop-color="#1F7EB0"/>
<stop offset="1" stop-color="#28244B"/>
</linearGradient>
<linearGradient id="paint2_linear_370_50" x1="34.2054" y1="8.71718e-05" x2="-0.0939963" y2="39.5398" gradientUnits="userSpaceOnUse">
<stop stop-color="#1BA6DD"/>
<stop offset="0.43" stop-color="#1F7EB0"/>
<stop offset="1" stop-color="#28244B"/>
</linearGradient>
<linearGradient id="paint3_linear_370_50" x1="34.2055" y1="2.5423e-06" x2="-0.0939045" y2="39.5397" gradientUnits="userSpaceOnUse">
<stop stop-color="#1BA6DD"/>
<stop offset="0.43" stop-color="#1F7EB0"/>
<stop offset="1" stop-color="#28244B"/>
</linearGradient>
<linearGradient id="paint4_linear_370_50" x1="34.2055" y1="7.89167e-05" x2="-0.0939255" y2="39.5398" gradientUnits="userSpaceOnUse">
<stop stop-color="#1BA6DD"/>
<stop offset="0.43" stop-color="#1F7EB0"/>
<stop offset="1" stop-color="#28244B"/>
</linearGradient>
<linearGradient id="paint5_linear_370_50" x1="34.2055" y1="-5.99453e-06" x2="-0.0939787" y2="39.5397" gradientUnits="userSpaceOnUse">
<stop stop-color="#1BA6DD"/>
<stop offset="0.43" stop-color="#1F7EB0"/>
<stop offset="1" stop-color="#28244B"/>
</linearGradient>
<linearGradient id="paint6_linear_370_50" x1="34.2055" y1="4.51672e-06" x2="-0.0939653" y2="39.5397" gradientUnits="userSpaceOnUse">
<stop stop-color="#1BA6DD"/>
<stop offset="0.43" stop-color="#1F7EB0"/>
<stop offset="1" stop-color="#28244B"/>
</linearGradient>
<linearGradient id="paint7_linear_370_50" x1="34.2055" y1="-5.44328e-06" x2="-0.0939377" y2="39.5397" gradientUnits="userSpaceOnUse">
<stop stop-color="#1BA6DD"/>
<stop offset="0.43" stop-color="#1F7EB0"/>
<stop offset="1" stop-color="#28244B"/>
</linearGradient>
<linearGradient id="paint8_linear_370_50" x1="34.2055" y1="-6.33285e-06" x2="-0.0939741" y2="39.5397" gradientUnits="userSpaceOnUse">
<stop stop-color="#1BA6DD"/>
<stop offset="0.43" stop-color="#1F7EB0"/>
<stop offset="1" stop-color="#28244B"/>
</linearGradient>
<linearGradient id="paint9_linear_370_50" x1="34.2056" y1="3.00616e-06" x2="-0.0938897" y2="39.5397" gradientUnits="userSpaceOnUse">
<stop stop-color="#1BA6DD"/>
<stop offset="0.43" stop-color="#1F7EB0"/>
<stop offset="1" stop-color="#28244B"/>
</linearGradient>
</defs>
</svg>
