<svg width="11" height="11" viewBox="0 0 11 11" fill="none" xmlns="http://www.w3.org/2000/svg">
<path d="M5.5 0C2.4672 0 0 2.4672 0 5.5C0 8.5328 2.4672 11 5.5 11C8.5328 11 11 8.5328 11 5.5C11 2.4672 8.5328 0 5.5 0ZM5.82405 5.5L9.22167 2.10238C10.0412 2.99933 10.5417 4.19238 10.5417 5.5C10.5417 6.80762 10.0412 8.00067 9.22167 8.89762L5.82405 5.5ZM8.89762 1.77833L5.5 5.17595L2.10238 1.77833C2.99933 0.958826 4.19238 0.458326 5.5 0.458326C6.80762 0.458326 8.00067 0.958826 8.89762 1.77833ZM1.77833 2.10238L5.17595 5.5L1.77833 8.89762C0.958826 8.00067 0.458326 6.80762 0.458326 5.5C0.458326 4.19238 0.958826 2.99933 1.77833 2.10238ZM2.10238 9.22167L5.5 5.82405L8.89762 9.22167C8.00067 10.0412 6.80762 10.5417 5.5 10.5417C4.19238 10.5417 2.99933 10.0412 2.10238 9.22167Z" fill="#28244B"/>
</svg>
