<svg width="43" height="43" viewBox="0 0 43 43" fill="none" xmlns="http://www.w3.org/2000/svg">
<path d="M9.22034 19.3425C9.01738 19.102 8.81851 18.8664 8.57979 18.5836C8.4718 18.7182 8.39219 18.8209 8.30869 18.9202C8.22327 19.0218 8.13394 19.1202 8.03663 19.2308C8.99846 19.5857 9.02025 19.5866 9.22034 19.3425ZM24.2876 34.3494C24.0726 34.122 23.8683 33.906 23.6651 33.6911C23.3775 33.9345 23.4028 34.2662 23.7386 34.8803C23.9198 34.705 24.1045 34.5264 24.2876 34.3494ZM19.3888 39.24C19.9599 38.803 19.9599 38.7954 19.4068 38.0057C19.1872 38.2067 18.9626 38.4122 18.7563 38.601C18.9692 38.8162 19.1791 39.0285 19.3888 39.24ZM4.28525 24.1887C4.54211 23.9712 4.77632 23.7729 5.01886 23.5676C4.0783 23.0167 4.0783 23.0167 3.72508 23.5852C3.93116 23.8072 4.13481 24.0266 4.28525 24.1887ZM24.2154 17.6534V16.4322C23.2178 16.4322 22.2432 16.424 21.2692 16.4454C21.1758 16.4474 21.0864 16.6333 20.9951 16.7339C22.1748 16.8518 23.2281 17.0074 24.2154 17.6534ZM7.65181 35.548C7.59192 35.4727 7.53619 35.3556 7.49582 35.3607C7.37915 35.3754 7.23957 35.4098 7.16005 35.4883C6.15413 36.4805 5.15298 37.4777 4.16554 38.4882C4.08064 38.5751 4.10217 38.7661 4.07431 38.9087C4.20686 38.8731 4.38039 38.8793 4.46572 38.7955C5.47434 37.8062 6.47054 36.8041 7.46735 35.8026C7.53515 35.7345 7.58211 35.6456 7.65181 35.548ZM36.8335 4.91778H37.8253V1.40607H36.8335V4.91778ZM30.0689 4.91482H31.0892V1.41032H30.0689V4.91482ZM9.13856 37.6855C8.56624 37.9133 8.05304 38.1175 7.52716 38.3269C7.98238 39.262 8.4264 40.1741 8.93014 41.2087C9.18145 40.8496 9.55377 40.5608 9.53701 40.2969C9.4818 39.4307 9.28527 38.5734 9.13856 37.6855ZM5.26886 33.8167C4.51017 33.6916 3.76467 33.6176 3.04668 33.4354C2.42419 33.2775 2.18165 33.6713 1.83094 34.0681C2.78791 34.5326 3.70685 34.9786 4.63109 35.4272C4.84655 34.8832 5.04586 34.3798 5.26886 33.8167ZM37.8738 23.6068V26.1023C38.6751 25.3028 39.5594 24.4208 40.3753 23.6068H37.8738ZM24.3577 1.41579H23.3183V4.91708H24.3577V1.41579ZM16.5591 4.90736H17.6171V1.41188H16.5591V4.90736ZM16.5142 18.9439C16.6811 18.7948 16.7866 18.7055 16.8865 18.6103C17.5734 17.9564 18.3666 17.4647 19.2724 17.2011C19.7179 17.0713 19.8018 16.862 19.6804 16.4599H16.5142V18.9439ZM25.7265 24.1444H28.7988V20.9967H26.2035C26.0408 22.0699 25.8838 23.1064 25.7265 24.1444ZM28.799 19.661V16.4638H25.6177C25.6177 17.4029 25.6032 18.3094 25.6319 19.2144C25.6367 19.3663 25.824 19.6374 25.9346 19.6414C26.8805 19.6756 27.8283 19.661 28.799 19.661ZM34.7424 19.6298H37.8923V16.4561H34.7424V19.6298ZM33.3215 16.4699H30.174V19.6485H33.3215V16.4699ZM37.8999 11.9026H34.7499V15.0615H37.8999V11.9026ZM30.154 15.0601H33.324V11.9053H30.154V15.0601ZM28.8132 11.9038H25.647V15.0448H28.8132V11.9038ZM24.222 11.9094H21.057V15.0559H24.222V11.9094ZM16.5149 15.0432H19.6935V11.8921H16.5149V15.0432ZM30.164 24.1478H33.3123V20.9839H30.164V24.1478ZM21.8716 39.7907C22.2777 39.355 22.6137 38.9591 22.9891 38.6052C23.2087 38.3982 23.246 38.2095 23.1659 37.93C22.6457 36.1145 22.142 34.2944 21.6292 32.4769C21.3321 31.4242 21.0282 30.3735 20.7141 29.2754C19.6792 30.0983 18.6913 30.884 17.6758 31.6914C19.0643 34.3716 20.4418 37.0308 21.8716 39.7907ZM3.20129 21.0891C3.44825 21.2245 3.60911 21.317 3.77369 21.4022C6.03199 22.5706 8.29107 23.7375 10.5494 24.9061C11.2689 25.2784 11.268 25.2799 11.7576 24.6628C11.8919 24.4935 12.0267 24.3246 12.161 24.1553C12.6585 23.5282 13.1559 22.9011 13.6836 22.2358C10.7075 21.3986 7.79209 20.5764 4.87346 19.7654C4.76208 19.7345 4.58309 19.7704 4.4994 19.8458C4.07248 20.2307 3.66649 20.6388 3.20129 21.0891ZM15.221 3.41436C14.4659 3.32677 13.8173 3.39248 13.3285 3.94076C13.2347 4.04605 13.2059 4.27063 13.2406 4.4182C13.3681 4.96022 13.5637 5.48697 13.6776 6.03125C13.7673 6.45956 13.7746 6.90523 13.8178 7.33632H41.5685C41.5685 6.60184 41.5708 5.8967 41.568 5.19148C41.563 3.93078 40.4874 3.1259 39.2245 3.45759C39.2245 3.92687 39.2329 4.40214 39.2226 4.87706C39.2043 5.72474 38.6768 6.24072 37.8342 6.24732C37.5456 6.24957 37.2543 6.22258 36.9688 6.25261C36.114 6.34228 35.4054 5.77725 35.4506 4.75414C35.47 4.3129 35.4538 3.8701 35.4538 3.42174H32.4668C32.4668 3.93399 32.4714 4.40995 32.4658 4.88583C32.456 5.71033 31.9312 6.23838 31.1182 6.24697C30.8152 6.25018 30.512 6.24827 30.209 6.24775C29.1666 6.24593 28.7242 5.79922 28.7205 4.74321C28.7188 4.30084 28.7202 3.85838 28.7202 3.4187H25.7094C25.7094 3.95586 25.717 4.45987 25.7076 4.96352C25.6936 5.70746 25.162 6.23421 24.4209 6.24593C24.0458 6.25192 23.6705 6.25044 23.2953 6.24697C22.4745 6.23924 21.9836 5.75026 21.9744 4.92698C21.9688 4.42679 21.9734 3.92643 21.9734 3.41167H18.9528C18.9528 3.95387 18.9603 4.47011 18.951 4.98618C18.938 5.70581 18.4104 6.23134 17.6924 6.24532C17.3029 6.25296 16.913 6.25096 16.5234 6.24662C15.7356 6.23786 15.2302 5.7355 15.2219 4.95068C15.2167 4.44867 15.221 3.94657 15.221 3.41436ZM1.36366 7.1502C1.24812 9.77257 3.43185 12.6903 6.88366 12.7052C10.1507 12.7192 12.4397 10.0492 12.4603 7.18232C12.4813 4.2912 10.1835 1.5914 6.91638 1.58307C3.50086 1.57439 1.24586 4.46742 1.36366 7.1502ZM8.83569 36.3055C9.08136 36.1632 9.29829 36.0599 9.49074 35.9225C11.8235 34.2569 14.1989 32.6463 16.4695 30.8997C18.7078 29.1778 20.8596 27.341 23.0093 25.5076C24.319 24.3906 24.8704 22.9004 24.7504 21.1892C24.6554 19.8369 23.9707 18.7432 22.5703 18.3541C21.7585 18.1286 20.9524 18.1492 20.1409 18.3267C18.7754 18.6255 17.7968 19.4901 16.9096 20.5067C13.7772 24.0951 10.8935 27.8767 8.14783 31.7652C7.62056 32.5119 7.14746 33.2967 6.60457 34.1331C8.22856 33.5837 9.36548 34.8437 8.83569 36.3055ZM13.6813 8.6886C13.4372 9.27638 13.202 9.81397 12.9924 10.3613C12.9025 10.5958 12.8139 10.8503 12.8128 11.0961C12.8002 13.839 12.8035 16.5819 12.8063 19.3248C12.8067 19.7418 12.6721 20.2813 12.8793 20.5423C13.1001 20.8205 13.65 20.8445 14.0611 20.9631C14.7412 21.1592 15.1419 20.8429 15.142 20.1197C15.1427 17.218 15.1415 14.3162 15.143 11.4145C15.1434 10.8017 15.3695 10.5637 15.9602 10.5636C23.4528 10.562 30.9453 10.562 38.4378 10.5635C39.0326 10.5636 39.2336 10.7679 39.2338 11.3668C39.2356 14.2974 39.2356 17.228 39.2337 20.1586C39.2334 20.7702 39.0219 20.9716 38.3931 20.9723C37.3248 20.9735 36.2565 20.9726 35.1882 20.9726H34.7194C34.7194 22.1987 34.7198 23.3533 34.7193 24.5079C34.719 25.3237 34.4825 25.5608 33.6636 25.5611C31.1083 25.562 28.5526 25.5884 25.998 25.5454C25.2043 25.5319 24.5599 25.6315 24.065 26.3296C23.801 26.7019 23.4006 26.9774 22.9989 27.3558C23.1722 27.369 23.2402 27.3787 23.3081 27.3787C27.5668 27.3794 31.8256 27.376 36.0843 27.3856C36.4141 27.3864 36.5031 27.2765 36.4991 26.9608C36.4849 25.8349 36.4799 24.7085 36.5025 23.5828C36.5161 22.9065 36.9038 22.4285 37.5086 22.2977C37.73 22.2497 37.9677 22.2718 38.1979 22.2714C39.3054 22.2693 40.413 22.2704 41.5362 22.2704V8.6886H13.6813ZM21.9437 28.6871C22.3002 29.9587 22.6419 31.1778 22.9828 32.3938C24.0292 32.2072 25.2022 32.8682 25.6056 33.8465C25.8302 34.3914 25.6832 34.8627 25.2994 35.2726C25.0036 35.5886 24.6975 35.8961 24.3802 36.1905C24.1912 36.3658 24.122 36.5207 24.2179 36.7901C24.3855 37.2614 24.4852 37.7563 24.6295 38.2365C24.7225 38.5459 24.6589 38.7999 24.4343 39.0241C23.6783 39.779 22.9302 40.5419 22.1654 41.2877C21.7811 41.6625 21.3261 41.583 21.0526 41.1083C20.868 40.7879 20.7084 40.4531 20.5232 40.0968C20.3739 40.2147 20.2576 40.3158 20.132 40.4038C19.7503 40.6715 19.2795 40.8004 18.9198 40.5282C18.3794 40.1189 17.8838 39.6233 17.4664 39.0886C17.2035 38.7517 17.2965 38.287 17.5506 37.9148C17.6634 37.7496 17.8033 37.6003 17.9448 37.4575C18.7431 36.6517 18.7446 36.6532 18.215 35.6315C17.6864 34.6118 17.1578 33.5921 16.6024 32.5208C16.205 32.8129 15.8433 33.0862 15.474 33.3488C13.8651 34.4931 12.2589 35.6413 10.6384 36.769C10.3977 36.9365 10.3989 37.0795 10.4448 37.3359C10.6366 38.4087 10.8128 39.4854 10.9442 40.5667C10.9703 40.7813 10.8257 41.0687 10.6705 41.2431C10.2393 41.7275 9.76306 42.1722 9.30081 42.6287C8.79871 43.1246 8.35087 43.0566 8.04054 42.428C7.52516 41.3837 7.02081 40.3342 6.51056 39.2875C6.44918 39.1616 6.38035 39.0393 6.2714 38.8327C5.94952 39.1768 5.67547 39.4893 5.38076 39.7811C4.69107 40.464 3.74878 40.4842 3.10866 39.8418C2.46941 39.2002 2.49615 38.2623 3.1801 37.5693C3.47047 37.2752 3.77239 36.9922 4.11276 36.6618C2.93123 36.0868 1.82278 35.5477 0.71486 35.0077C0.585431 34.9446 0.450012 34.8891 0.33178 34.8088C-0.0383669 34.5574 -0.116234 34.1279 0.186898 33.8057C0.710867 33.2486 1.24907 32.7025 1.81488 32.1888C1.95907 32.058 2.23963 31.9946 2.44042 32.0226C3.56214 32.179 4.67797 32.3776 5.79813 32.5461C5.89509 32.5606 6.05117 32.4909 6.10951 32.4099C7.53219 30.4331 8.94542 28.4494 10.3593 26.4663C10.3749 26.4445 10.3767 26.4128 10.3973 26.3451C10.167 26.2225 9.93008 26.0942 9.69118 25.9698C8.65843 25.4318 7.62308 24.8989 6.59381 24.3545C6.38503 24.2441 6.2379 24.2406 6.07166 24.434C5.85594 24.685 5.61036 24.9112 5.3713 25.1416C4.7054 25.7835 4.01892 25.7857 3.35875 25.1507C3.21309 25.0106 3.07264 24.8651 2.92984 24.7221C2.11428 23.9053 2.0898 23.3716 2.85952 22.4401C2.54129 22.2693 2.2293 22.1056 1.92088 21.9354C1.343 21.6167 1.27268 21.1894 1.7325 20.7231C2.44198 20.0034 3.16309 19.2953 3.87309 18.5761C4.12978 18.3161 4.40287 18.2155 4.76703 18.3426C5.11782 18.4651 5.50889 18.4918 5.83832 18.6513C6.357 18.9023 6.69199 18.7238 7.01708 18.328C7.22672 18.0727 7.4729 17.8444 7.71996 17.6233C8.3 17.1044 8.9712 17.1182 9.53571 17.6489C9.67234 17.7774 9.79292 17.9244 9.93667 18.0438C10.5428 18.5478 10.8548 19.1453 10.5273 19.9611C10.8496 20.0495 11.135 20.1278 11.4631 20.2178V12.3426C9.25263 14.0793 6.83982 14.5495 4.22761 13.491C2.67515 12.8619 1.52095 11.7543 0.755573 10.2599C-0.778053 7.26574 0.12622 3.56714 2.83053 1.5802C5.51809 -0.394404 9.73146 -0.319142 12.3506 2.88379C12.799 2.64837 13.2174 2.34854 13.6838 2.20643C14.1527 2.06355 14.6695 2.0777 15.2207 2.01693C15.2207 1.82656 15.2199 1.62916 15.2209 1.43176C15.2251 0.637214 15.5779 0.151181 16.346 0.0490087C16.8524 -0.0183539 17.3863 -0.0052462 17.8916 0.0747902C18.5883 0.185209 18.9468 0.681746 18.9527 1.38289C18.9546 1.59583 18.953 1.80877 18.953 2.07362C19.9158 2.07362 20.8353 2.08048 21.7542 2.06086C21.8288 2.05929 21.9554 1.88143 21.9638 1.77795C22.0844 0.271148 22.3641 0.00308751 23.8714 0.00933764C24.143 0.0104661 24.421 0.0204467 24.6845 0.0786077C25.3216 0.218975 25.6945 0.693987 25.7085 1.33775C25.7136 1.56545 25.7094 1.79332 25.7094 2.07353C26.6685 2.07353 27.5877 2.08039 28.5065 2.06051C28.5793 2.05895 28.7021 1.87656 28.7105 1.77092C28.8307 0.269411 29.1113 0.00299866 30.6285 0.00942241C30.9001 0.0105509 31.1778 0.022272 31.4414 0.0804329C32.0692 0.218978 32.4454 0.698934 32.4655 1.34513C32.4727 1.57239 32.4668 1.80017 32.4668 2.05105H35.4554C35.4554 1.80677 35.4448 1.58072 35.4574 1.35598C35.4997 0.604141 35.8515 0.1517 36.5859 0.0495279C37.0792 -0.0190499 37.5988 -0.0162722 38.0914 0.0569932C38.8164 0.164721 39.204 0.679403 39.2237 1.4157C39.229 1.61588 39.2245 1.81623 39.2245 2.04688C39.6496 2.07049 40.0589 2.04002 40.4432 2.12397C42.0134 2.46703 42.9481 3.71853 42.949 5.44322C42.9518 10.7129 42.9514 15.9826 42.9471 21.2522C42.9468 21.6113 42.9073 21.9706 42.8814 22.3293C42.8302 23.0385 42.5087 23.6221 42.0183 24.1158C40.7977 25.3452 39.5733 26.571 38.3437 27.7914C37.7339 28.3967 37.0009 28.693 36.1291 28.6913C31.5957 28.6821 27.0623 28.6871 22.529 28.6871H21.9437Z" fill="url(#paint0_linear_424_926)"/>
<path d="M23.0275 23.7294C23.0133 24.3261 22.4663 24.6229 22.0254 24.3623C21.9279 24.3047 21.8413 24.2243 21.7605 24.1437C20.7716 23.1574 19.7794 22.1742 18.8032 21.1755C18.6639 21.0329 18.5122 20.8029 18.5305 20.6308C18.5541 20.4091 18.6954 20.1222 18.8754 20.018C19.0385 19.9236 19.4076 19.9473 19.5386 20.0727C20.6717 21.1577 21.7748 22.2744 22.8761 23.3921C22.976 23.4935 23.0014 23.6682 23.0275 23.7294Z" fill="url(#paint1_linear_424_926)"/>
<path d="M6.21869 5.28951C6.21869 4.72674 6.2147 4.16388 6.21982 3.60111C6.22451 3.08825 6.49196 2.77392 6.90699 2.77887C7.3024 2.78355 7.55813 3.07306 7.56543 3.58192C7.57879 4.50529 7.57931 5.4291 7.56473 6.35247C7.56013 6.64319 7.63704 6.82045 7.91127 6.9655C8.55937 7.30839 9.18751 7.68965 9.81851 8.06396C10.2057 8.29365 10.3362 8.68003 10.1564 9.01034C9.96661 9.35904 9.56755 9.44646 9.1494 9.20947C8.31058 8.73412 7.46178 8.27282 6.65334 7.74972C6.44049 7.61196 6.26627 7.27983 6.23797 7.01915C6.1759 6.44865 6.21869 5.86678 6.21869 5.28951Z" fill="url(#paint2_linear_424_926)"/>
<defs>
<linearGradient id="paint0_linear_424_926" x1="42.9507" y1="-4.09673e-05" x2="-4.15298e-06" y2="42.9771" gradientUnits="userSpaceOnUse">
<stop stop-color="#1BA6DD"/>
<stop offset="0.43" stop-color="#1F7EB0"/>
<stop offset="1" stop-color="#28244B"/>
</linearGradient>
<linearGradient id="paint1_linear_424_926" x1="42.9509" y1="-0.000322242" x2="0.000116685" y2="42.9768" gradientUnits="userSpaceOnUse">
<stop stop-color="#1BA6DD"/>
<stop offset="0.43" stop-color="#1F7EB0"/>
<stop offset="1" stop-color="#28244B"/>
</linearGradient>
<linearGradient id="paint2_linear_424_926" x1="42.9508" y1="-0.000281577" x2="7.74052e-05" y2="42.9769" gradientUnits="userSpaceOnUse">
<stop stop-color="#1BA6DD"/>
<stop offset="0.43" stop-color="#1F7EB0"/>
<stop offset="1" stop-color="#28244B"/>
</linearGradient>
</defs>
</svg>
