<svg width="39" height="33" viewBox="0 0 39 33" fill="none" xmlns="http://www.w3.org/2000/svg">
<path d="M13.4755 8.30132C13.4764 9.40011 14.3484 10.2903 15.4257 10.2923C16.4857 10.2941 17.4024 9.38002 17.4001 8.30714C17.3973 7.0155 16.2831 6.27177 15.4122 6.31397C14.307 6.3674 13.4746 7.17434 13.4755 8.30132ZM22.9551 15.5082C22.8235 15.5211 22.6872 15.5216 22.5565 15.5491C21.7722 15.7137 20.9827 15.8597 20.2083 16.0633C19.7827 16.1752 19.4712 16.0971 19.1518 15.7985C17.742 14.4806 16.3138 13.183 14.9012 11.8684C14.6738 11.6568 14.4491 11.5504 14.1282 11.5534C12.3329 11.5697 10.5372 11.567 8.74177 11.5584C8.05224 11.555 7.53996 11.8439 7.18754 12.4334C6.87161 12.9617 6.56011 13.4926 6.24786 14.0231C5.76538 14.8427 5.28031 15.6608 4.80369 16.4839C4.62844 16.7866 4.61429 17.1019 4.83557 17.3907C5.04723 17.6668 5.35488 17.7575 5.65399 17.6236C5.85108 17.5354 6.0321 17.3388 6.14693 17.1461C6.92015 15.8484 7.68291 14.5442 8.42843 13.2301C8.66996 12.8043 8.99686 12.6022 9.4749 12.6089C10.0594 12.6169 10.6449 12.6301 11.2284 12.6051C11.8149 12.58 12.1953 12.9343 11.9368 13.634C10.5442 17.4048 9.19001 21.19 7.8215 24.9698C7.59989 25.5821 7.48774 25.6599 6.84801 25.6601C5.17779 25.6607 3.50756 25.6589 1.83734 25.6613C1.42634 25.6619 1.17585 25.8786 1.15342 26.2358C1.13133 26.5885 1.40617 26.8796 1.8027 26.9201C1.87166 26.9271 1.94179 26.9231 2.01142 26.9231C4.25225 26.9232 6.49324 26.9166 8.73398 26.9314C9.02063 26.9332 9.14817 26.8253 9.26333 26.5849C9.71534 25.6413 10.1774 24.7023 10.6503 23.7692C11.1139 22.8546 12.0794 22.677 12.8376 23.3548C13.3274 23.7927 13.7771 24.2884 14.3109 24.6618C15.5283 25.5133 16.2014 26.6839 16.5914 28.0997C16.8798 29.1467 17.294 30.1591 17.6681 31.181C17.8303 31.624 18.2457 31.8329 18.6293 31.7063C19.0517 31.567 19.2624 31.17 19.1553 30.7018C19.1274 30.58 19.081 30.4623 19.0392 30.3441C18.3817 28.489 17.7312 26.6313 17.0579 24.7821C16.9512 24.4889 16.7786 24.2005 16.5728 23.9672C15.6469 22.9175 14.7032 21.8836 13.7557 20.8537C13.1572 20.2032 13.0491 19.4789 13.4036 18.6832C13.779 17.8404 14.1671 17.0034 14.5606 16.1691C14.9422 15.3602 15.7469 15.2394 16.3452 15.9004C16.7865 16.388 17.2252 16.879 17.6427 17.3871C17.8391 17.6261 18.0608 17.6954 18.341 17.6328C19.609 17.3496 20.8783 17.0715 22.1435 16.7759C22.7773 16.6278 23.0565 16.1817 22.9551 15.5082ZM10.5861 13.7768C10.2439 13.7768 9.95018 13.7474 9.66689 13.7898C9.53499 13.8095 9.3825 13.9436 9.30902 14.068C8.56928 15.3204 7.85046 16.5857 7.11247 17.8393C6.56496 18.7696 5.55992 19.109 4.63831 18.6973C3.63745 18.2501 3.17573 17.0122 3.71947 16.0405C4.55278 14.5511 5.41714 13.0775 6.32167 11.6313C6.84332 10.7973 7.66048 10.3877 8.64728 10.3815C9.95562 10.3732 11.2641 10.3792 12.5726 10.3791H13.0547C12.3211 9.38053 12.0923 8.35491 12.4751 7.23705C12.7567 6.415 13.3023 5.81619 14.072 5.43487C15.5779 4.68862 17.4443 5.31579 18.2113 6.83168C18.6743 7.74665 18.7045 8.68719 18.2712 9.62326C17.847 10.5395 17.1169 11.105 16.1111 11.3915C16.8594 12.0823 17.5554 12.7269 18.2537 13.3689C18.7169 13.7948 19.1991 14.2012 19.6414 14.6481C19.8595 14.8686 20.0737 14.9015 20.3471 14.8404C21.1158 14.6687 21.8859 14.503 22.6564 14.3395C23.4715 14.1665 24.0063 14.5284 24.1598 15.3503C24.3677 16.464 23.6362 17.6236 22.5283 17.8889C21.1844 18.2107 19.8364 18.5163 18.4857 18.8076C17.8935 18.9352 17.35 18.8085 16.929 18.3293C16.6059 17.9614 16.2899 17.5871 15.9681 17.218C15.8523 17.0852 15.7288 16.9595 15.5643 16.7827C15.1604 17.6644 14.7704 18.4796 14.4161 19.3103C14.2988 19.5852 14.4164 19.8457 14.6272 20.074C15.6145 21.1435 16.6004 22.2149 17.5634 23.3066C17.7866 23.5597 17.9672 23.8771 18.0839 24.1962C18.8074 26.1755 19.5132 28.1616 20.2126 30.1498C20.7189 31.5891 19.7722 32.9727 18.331 32.921C17.5374 32.8925 16.8626 32.3825 16.5621 31.5512C16.0308 30.0809 15.5196 28.6032 14.9835 27.1348C14.9009 26.9086 14.7684 26.6741 14.5954 26.5132C13.787 25.7607 12.9523 25.0371 12.1363 24.2928C11.8977 24.0751 11.7728 24.1327 11.6416 24.4024C11.1527 25.4065 10.6397 26.3988 10.1591 27.407C9.92357 27.9008 9.54361 28.107 9.02991 28.1075C6.64966 28.11 4.26949 28.1132 1.88923 28.1063C0.942771 28.1036 0.140928 27.4544 0.024346 26.6258C-0.117092 25.6202 0.364884 24.8094 1.28381 24.5368C1.46601 24.4827 1.66645 24.4755 1.8586 24.4749C3.37575 24.4701 4.89299 24.4681 6.41022 24.4762C6.6433 24.4774 6.7875 24.4326 6.87705 24.183C8.08931 20.806 9.31179 17.4325 10.5302 14.0577C10.553 13.9944 10.5574 13.9242 10.5861 13.7768Z" fill="url(#paint0_linear_341_464)"/>
<path d="M23.3007 8.55006C23.2924 12.6764 26.7511 16.0813 30.9394 15.876C34.4972 15.7016 37.8286 12.7526 37.8343 8.51343C37.8398 4.36454 34.5152 1.10691 30.3602 1.19089C26.464 1.26963 23.2943 4.51579 23.3007 8.55006ZM38.9962 8.52237C39.0063 13.3505 35.0784 17.0495 30.6078 17.0665C25.9793 17.084 22.1431 13.2199 22.1313 8.56348C22.1198 4.04594 25.6828 0.126363 30.3377 0.00305598C35.1936 -0.125652 39.0017 3.83148 38.9962 8.52237Z" fill="url(#paint1_linear_341_464)"/>
<path d="M30.0929 26.5708C30.0417 26.2974 29.7955 26.1291 29.52 26.1792C29.2272 26.2324 29.0418 26.4908 29.0967 26.7689C29.1494 27.0357 29.4536 27.2358 29.7125 27.1739C29.9643 27.1137 30.1419 26.8322 30.0929 26.5708ZM26.9618 22.0786L30.1687 21.3912C30.0999 20.7904 29.9926 20.7087 29.4547 20.8236C28.7686 20.9702 28.0826 21.1173 27.3967 21.2648C26.857 21.3808 26.7857 21.5064 26.9618 22.0786ZM26.6112 24.0796L31.28 23.0789L31.1177 22.301L26.4489 23.3018L26.6112 24.0796ZM23.8366 23.8512C23.9504 24.3968 24.0913 24.9124 24.1581 25.4378C24.2215 25.9373 24.5084 26.1759 24.945 26.2906C25.1501 26.3444 25.3645 26.3986 25.5737 26.3944C26.3471 26.3791 27.1207 26.3493 27.8926 26.2975C27.9947 26.2906 28.1243 26.1434 28.1774 26.0308C28.5779 25.1836 29.645 24.7775 30.3567 25.3426C30.8615 25.7434 31.2484 25.5487 31.702 25.4124C31.8095 25.3802 31.9182 25.3443 32.017 25.2922C32.6012 24.984 33.2007 24.699 33.755 24.3432C33.943 24.2225 34.1399 23.9035 34.117 23.7005C34.0424 23.0416 33.868 22.3945 33.7313 21.7395L32.1455 22.0794C32.2021 22.3507 32.2575 22.603 32.3072 22.8565C32.4271 23.4682 32.1064 24.0101 31.501 24.145C29.956 24.4894 28.408 24.8204 26.8579 25.1408C26.2412 25.2683 25.7223 24.8959 25.588 24.2718C25.5341 24.0214 25.4831 23.7703 25.4287 23.5099L23.8366 23.8512ZM25.0893 27.5085C25.2503 28.2799 25.4212 29.1027 25.5939 29.9251C25.689 30.3779 25.7395 30.4101 26.1923 30.3131C28.848 29.7441 31.5037 29.1747 34.1593 28.6055C34.2257 28.5912 34.3128 28.5982 34.3542 28.5579C34.4482 28.4662 34.6035 28.3353 34.5874 28.2482C34.4189 27.3366 34.2215 26.4306 34.0459 25.5891C33.1218 25.9424 32.2198 26.283 31.3231 26.6372C31.2418 26.6692 31.154 26.7801 31.1372 26.8675C31.0004 27.5755 30.6044 28.0415 29.8979 28.1876C29.2049 28.3309 28.6706 28.057 28.2679 27.4849C28.2166 27.4121 28.0957 27.3436 28.0102 27.3475C27.0489 27.3921 26.088 27.4512 25.0893 27.5085ZM30.3987 30.5252C29.0605 30.812 27.7229 31.1016 26.3838 31.3847C25.6522 31.5393 25.0837 31.3046 24.7677 30.7172C24.6997 30.591 24.6584 30.4456 24.6282 30.304C24.4104 29.2816 24.2031 28.2568 23.9798 27.2357C23.951 27.1036 23.8762 26.9562 23.7764 26.8705C23.4719 26.6093 23.2732 26.2909 23.1897 25.9028C23.0487 25.2477 22.8948 24.5939 22.7922 23.9322C22.7009 23.3431 22.979 22.9728 23.5547 22.842C24.2496 22.6842 24.9462 22.5326 25.6453 22.3959C25.8795 22.3501 25.9286 22.2587 25.8834 22.026C25.7065 21.1155 26.1325 20.4857 27.0405 20.2877C27.8473 20.1118 28.6543 19.937 29.4628 19.7694C30.27 19.6021 30.9429 20.0113 31.1163 20.811C31.1878 21.1413 31.3136 21.195 31.6199 21.1178C32.2558 20.9574 32.9004 20.8319 33.5429 20.6997C34.1586 20.5731 34.5872 20.7759 34.7446 21.3812C34.9381 22.125 35.0557 22.8909 35.1695 23.653C35.2008 23.8626 35.1441 24.1126 35.0519 24.308C34.9317 24.5628 34.926 24.7925 34.9845 25.0576C35.1928 26.0005 35.3564 26.9544 35.5889 27.8909C35.7891 28.697 35.3597 29.4575 34.4463 29.6563C33.098 29.95 31.748 30.2359 30.3987 30.5252Z" fill="url(#paint2_linear_341_464)"/>
<path d="M29.986 7.84764C29.986 7.55958 29.9858 7.32344 29.986 7.08737C29.9865 6.55287 29.9779 6.01812 29.9907 5.48396C30.0007 5.05842 30.2397 4.79915 30.5772 4.81155C30.9034 4.82354 31.1239 5.06846 31.1279 5.47518C31.1374 6.4456 31.139 7.41636 31.1261 8.38669C31.1202 8.83401 30.9178 9.02348 30.4786 9.02787C29.7688 9.03505 29.0589 9.03454 28.3491 9.02804C27.9607 9.0245 27.6759 8.75948 27.6823 8.42957C27.6886 8.09991 27.9719 7.85363 28.368 7.84907C28.8819 7.84316 29.396 7.84764 29.986 7.84764Z" fill="url(#paint3_linear_341_464)"/>
<path d="M36.1846 7.84396C36.2952 7.84396 36.4345 7.80074 36.5107 7.85248C36.6995 7.9806 36.9688 8.13226 37.0008 8.31178C37.0338 8.49687 36.875 8.82746 36.7092 8.91186C36.4716 9.0328 36.1466 9.03314 35.8674 9.00309C35.5012 8.96376 35.3117 8.67031 35.3611 8.31938C35.4114 7.96211 35.6443 7.83298 35.9772 7.84033C36.0462 7.84185 36.1154 7.84058 36.1846 7.84058V7.84396Z" fill="url(#paint4_linear_341_464)"/>
<path d="M24.9602 7.8372C25.5425 7.83712 25.7488 7.97714 25.7684 8.37702C25.7824 8.66457 25.6662 8.88823 25.391 8.94528C25.1286 8.99972 24.8453 9.01592 24.5806 8.97921C24.2325 8.93093 24.0436 8.68271 24.0961 8.3236C24.145 7.98836 24.3712 7.82573 24.7114 7.83678C24.7943 7.83948 24.8772 7.8372 24.9602 7.8372Z" fill="url(#paint5_linear_341_464)"/>
<path d="M29.9954 14.1037C29.995 13.507 30.1308 13.2508 30.5058 13.263C30.688 13.2689 31.0016 13.391 31.0208 13.5019C31.0873 13.8868 31.0946 14.2979 31.0268 14.6813C31.0064 14.7973 30.6707 14.9225 30.4771 14.9266C30.1246 14.9341 29.9958 14.6753 29.9954 14.1037Z" fill="url(#paint6_linear_341_464)"/>
<path d="M31.1388 2.7143C31.1274 2.86824 31.1704 3.06481 31.0923 3.16642C30.9619 3.33606 30.7499 3.55635 30.58 3.54976C30.3873 3.54234 30.1306 3.34712 30.0353 3.16305C29.9366 2.97256 29.9873 2.69716 29.9923 2.45933C30.0001 2.09143 30.2082 1.86465 30.56 1.86634C30.909 1.86794 31.1165 2.08789 31.1246 2.46076C31.1265 2.54499 31.1249 2.62931 31.1249 2.71362C31.1296 2.71387 31.1342 2.71404 31.1388 2.7143Z" fill="url(#paint7_linear_341_464)"/>
<defs>
<linearGradient id="paint0_linear_341_464" x1="38.9963" y1="1.14437e-06" x2="-0.270245" y2="32.5967" gradientUnits="userSpaceOnUse">
<stop stop-color="#1BA6DD"/>
<stop offset="0.43" stop-color="#1F7EB0"/>
<stop offset="1" stop-color="#28244B"/>
</linearGradient>
<linearGradient id="paint1_linear_341_464" x1="38.9962" y1="-3.96282e-07" x2="-0.270332" y2="32.5967" gradientUnits="userSpaceOnUse">
<stop stop-color="#1BA6DD"/>
<stop offset="0.43" stop-color="#1F7EB0"/>
<stop offset="1" stop-color="#28244B"/>
</linearGradient>
<linearGradient id="paint2_linear_341_464" x1="39.0436" y1="0.014554" x2="-0.260329" y2="32.6912" gradientUnits="userSpaceOnUse">
<stop stop-color="#1BA6DD"/>
<stop offset="0.43" stop-color="#1F7EB0"/>
<stop offset="1" stop-color="#28244B"/>
</linearGradient>
<linearGradient id="paint3_linear_341_464" x1="38.9962" y1="2.0377e-06" x2="-0.270321" y2="32.5967" gradientUnits="userSpaceOnUse">
<stop stop-color="#1BA6DD"/>
<stop offset="0.43" stop-color="#1F7EB0"/>
<stop offset="1" stop-color="#28244B"/>
</linearGradient>
<linearGradient id="paint4_linear_341_464" x1="38.9963" y1="-3.37113e-07" x2="-0.270287" y2="32.5967" gradientUnits="userSpaceOnUse">
<stop stop-color="#1BA6DD"/>
<stop offset="0.43" stop-color="#1F7EB0"/>
<stop offset="1" stop-color="#28244B"/>
</linearGradient>
<linearGradient id="paint5_linear_341_464" x1="38.9963" y1="-1.0728e-07" x2="-0.270225" y2="32.5967" gradientUnits="userSpaceOnUse">
<stop stop-color="#1BA6DD"/>
<stop offset="0.43" stop-color="#1F7EB0"/>
<stop offset="1" stop-color="#28244B"/>
</linearGradient>
<linearGradient id="paint6_linear_341_464" x1="38.9962" y1="4.59457e-07" x2="-0.270329" y2="32.5967" gradientUnits="userSpaceOnUse">
<stop stop-color="#1BA6DD"/>
<stop offset="0.43" stop-color="#1F7EB0"/>
<stop offset="1" stop-color="#28244B"/>
</linearGradient>
<linearGradient id="paint7_linear_341_464" x1="38.9963" y1="1.27214e-06" x2="-0.270271" y2="32.5967" gradientUnits="userSpaceOnUse">
<stop stop-color="#1BA6DD"/>
<stop offset="0.43" stop-color="#1F7EB0"/>
<stop offset="1" stop-color="#28244B"/>
</linearGradient>
</defs>
</svg>
