<svg width="14" height="16" viewBox="0 0 14 16" fill="none" xmlns="http://www.w3.org/2000/svg">
<path fill-rule="evenodd" clip-rule="evenodd" d="M13.3 2.66666C13.684 2.66666 14 2.96762 14 3.33334C14 3.69906 13.684 4 13.3 4H12.6V12.6667C12.5977 14.4944 11.0192 15.9978 9.1 16H4.9C2.98082 15.9978 1.40228 14.4944 1.39998 12.6667V4H0.69999C0.315985 4 0 3.69906 0 3.33334C0 2.96762 0.315985 2.66666 0.69999 2.66666H2.86998C3.20365 1.12153 4.64363 0.002 6.30001 0H7.69999C9.35637 0.002 10.7963 1.12153 11.13 2.66666H13.3ZM6.30001 1.33334C5.41243 1.33438 4.61673 1.87013 4.31971 2.66666H9.68029C9.38327 1.87013 8.58757 1.33438 7.69999 1.33334H6.30001ZM11.2 12.6667V4H2.79999V12.6667C2.79999 13.7638 3.74798 14.6667 4.9 14.6667H9.1C10.252 14.6667 11.2 13.7638 11.2 12.6667ZM5.59999 12C5.21598 12 4.9 11.6991 4.9 11.3333V7.33334C4.9 6.96763 5.21598 6.66666 5.59999 6.66666C5.98399 6.66666 6.30001 6.96763 6.30001 7.33334V11.3333C6.30001 11.6991 5.98399 12 5.59999 12ZM8.40001 12C8.01601 12 7.69999 11.6991 7.69999 11.3333V7.33334C7.69999 6.96763 8.01601 6.66666 8.40001 6.66666C8.78402 6.66666 9.1 6.96763 9.1 7.33334V11.3333C9.1 11.6991 8.78402 12 8.40001 12Z" fill="#28244B"/>
</svg>
