<svg width="12" height="11" viewBox="0 0 12 11" fill="none" xmlns="http://www.w3.org/2000/svg">
<path d="M9.75 0H2.25C1.0095 0 0 1.0095 0 2.25V8.75C0 9.9905 1.0095 11 2.25 11H9.75C10.9905 11 12 9.9905 12 8.75V2.25C12 1.0095 10.9905 0 9.75 0ZM11.5 8.75C11.5 9.715 10.715 10.5 9.75 10.5H2.25C1.285 10.5 0.5 9.715 0.5 8.75V2.25C0.5 1.285 1.285 0.5 2.25 0.5H9.75C10.715 0.5 11.5 1.285 11.5 2.25V8.75ZM10 2.75C10 2.888 9.888 3 9.75 3H4.75C4.612 3 4.5 2.888 4.5 2.75C4.5 2.612 4.612 2.5 4.75 2.5H9.75C9.888 2.5 10 2.612 10 2.75ZM3 2.75C3 3.026 2.776 3.25 2.5 3.25C2.224 3.25 2 3.026 2 2.75C2 2.474 2.224 2.25 2.5 2.25C2.776 2.25 3 2.474 3 2.75ZM10 5.5C10 5.638 9.888 5.75 9.75 5.75H4.75C4.612 5.75 4.5 5.638 4.5 5.5C4.5 5.362 4.612 5.25 4.75 5.25H9.75C9.888 5.25 10 5.362 10 5.5ZM3 5.5C3 5.776 2.776 6 2.5 6C2.224 6 2 5.776 2 5.5C2 5.224 2.224 5 2.5 5C2.776 5 3 5.224 3 5.5ZM10 8.25C10 8.388 9.888 8.5 9.75 8.5H4.75C4.612 8.5 4.5 8.388 4.5 8.25C4.5 8.112 4.612 8 4.75 8H9.75C9.888 8 10 8.112 10 8.25ZM3 8.25C3 8.526 2.776 8.75 2.5 8.75C2.224 8.75 2 8.526 2 8.25C2 7.974 2.224 7.75 2.5 7.75C2.776 7.75 3 7.974 3 8.25Z" fill="#28244B"/>
</svg>
