<svg width="16" height="16" viewBox="0 0 16 16" fill="none" xmlns="http://www.w3.org/2000/svg">
<path d="M12.542 6.66638C12.748 6.66638 12.9427 6.57107 13.0687 6.40839C13.1947 6.24574 13.2387 6.03375 13.188 5.83442C12.9807 5.02314 12.558 4.28182 11.966 3.68985L9.64266 1.3666C8.76134 0.485324 7.58934 0 6.34266 0H3.33266C1.49534 0 0 1.49528 0 3.33321V12.6661C0 14.5041 1.49534 15.9993 3.33334 15.9993H5.33334C5.70134 15.9993 6 15.7007 6 15.3327C6 14.9647 5.70134 14.6661 5.33334 14.6661H3.33334C2.23066 14.6661 1.33334 13.7688 1.33334 12.6661V3.33321C1.33334 2.23056 2.23066 1.33329 3.33334 1.33329H6.34334C6.452 1.33329 6.56 1.3386 6.66666 1.3486V4.66646C6.66666 5.76911 7.564 6.66638 8.66666 6.66638H12.542ZM8 4.66646V1.77258C8.25266 1.91792 8.488 2.09791 8.7 2.30991L11.0233 4.63315C11.2327 4.84246 11.412 5.07845 11.5587 5.33313H8.66666C8.29934 5.33313 8 5.03379 8 4.66646ZM15.4147 7.91902C14.6587 7.16305 13.3413 7.16305 12.586 7.91902L8.11466 12.3901C7.61134 12.8935 7.33334 13.5634 7.33334 14.2761V15.3334C7.33334 15.7014 7.632 16 8 16H9.05734C9.77 16 10.4393 15.722 10.9427 15.2187L15.414 10.7476C15.792 10.3696 16 9.86759 16 9.33296C16 8.7983 15.792 8.29632 15.4147 7.91902ZM14.4713 9.80425L9.99934 14.2754C9.748 14.5274 9.41334 14.6661 9.05666 14.6661H8.666V14.2754C8.666 13.9194 8.80466 13.5848 9.05666 13.3328L13.5287 8.86164C13.78 8.60965 14.2193 8.60965 14.4713 8.86164C14.5973 8.98698 14.6667 9.15428 14.6667 9.33296C14.6667 9.51161 14.5973 9.67826 14.4713 9.80425Z" fill="#28244B"/>
</svg>
