<svg width="41" height="41" viewBox="0 0 41 41" fill="none" xmlns="http://www.w3.org/2000/svg">
<path d="M22.3763 8.40108H22.9342C25.206 8.40108 27.4778 8.39884 29.7496 8.40241C30.4955 8.40353 30.8009 8.7248 30.806 9.50839C30.8118 10.3916 30.8107 11.275 30.8064 12.1583C30.8025 12.9711 30.4993 13.2867 29.7267 13.2923C29.326 13.2953 28.9251 13.2928 28.4228 13.2928C29.5261 14.6768 30.5419 15.9512 31.5828 17.257C32.6452 15.9168 33.6543 14.6438 34.7251 13.2928C34.2151 13.2928 33.8322 13.2946 33.4494 13.2925C32.6423 13.288 32.3507 12.9826 32.3486 12.1298C32.3456 10.8897 32.3494 9.64974 32.3473 8.40975C32.3456 7.42708 31.7168 6.76649 30.7818 6.76598C28.1261 6.76465 25.4704 6.76547 22.8146 6.76547H22.3763V8.40108ZM29.2505 11.6657V10.0291H28.2328C26.392 10.0291 24.5512 10.0305 22.7105 10.0287C21.4513 10.0275 20.8246 9.36407 20.8213 8.03402C20.8203 7.64309 20.8067 7.25145 20.8247 6.86144C20.872 5.84133 21.4744 5.15606 22.4337 5.1476C25.2187 5.12302 28.0049 5.0914 30.7887 5.158C32.6465 5.20247 33.8472 6.60901 33.8783 8.58956C33.894 9.59018 33.881 10.5913 33.881 11.6649C34.2988 11.6649 34.6919 11.662 35.085 11.6655C35.6646 11.6706 36.1662 11.8506 36.4226 12.4537C36.6687 13.0326 36.4873 13.5249 36.1149 13.9873C34.9399 15.446 33.7866 16.9244 32.6093 18.3808C31.9461 19.201 31.2068 19.1993 30.5438 18.3773C29.3471 16.8938 28.1713 15.3911 26.9797 13.9028C26.6269 13.4623 26.507 12.9872 26.7333 12.4508C26.9618 11.9091 27.4056 11.6988 27.9298 11.6704C28.3579 11.6472 28.788 11.6657 29.2505 11.6657Z" fill="url(#paint0_linear_940_3961)"/>
<path d="M9.31591 24.017C8.25915 25.3476 7.24762 26.6212 6.16574 27.9834C6.67776 27.9834 7.07217 27.981 7.46648 27.9839C8.23749 27.9894 8.54095 28.3059 8.54355 29.1202C8.54759 30.3602 8.54355 31.6003 8.54499 32.8404C8.54624 33.8606 9.16384 34.5099 10.1343 34.5103C12.7741 34.5114 15.4139 34.5111 18.0537 34.5097C18.2071 34.5096 18.3605 34.495 18.4993 34.488V32.8751H17.9343C15.6624 32.8751 13.3906 32.8781 11.1188 32.8733C10.4044 32.8718 10.0927 32.5427 10.0868 31.7928C10.0797 30.8755 10.0784 29.9581 10.0873 29.0408C10.0943 28.3185 10.4066 27.9961 11.0928 27.9847C11.5148 27.9777 11.9371 27.9834 12.467 27.9834C11.3829 26.6189 10.3766 25.3521 9.31591 24.017ZM11.6287 29.611V31.247H12.142C14.1591 31.247 16.1762 31.2456 18.1933 31.2476C19.4455 31.2487 20.068 31.9159 20.0713 33.2539C20.0722 33.6279 20.0824 34.0023 20.0687 34.3757C20.0304 35.4179 19.4175 36.1214 18.4438 36.1296C15.6745 36.153 12.9041 36.1789 10.1356 36.122C8.26069 36.0834 7.03848 34.6694 7.01355 32.6685C7.00114 31.6694 7.01134 30.6699 7.01134 29.6113C6.57988 29.6113 6.18489 29.6176 5.7901 29.6098C5.23188 29.5988 4.74566 29.429 4.48445 28.8492C4.22421 28.2716 4.3857 27.7821 4.76048 27.3158C5.9028 25.8942 7.05532 24.4805 8.15568 23.0227C8.8292 22.1303 9.82196 22.159 10.4631 23.0079C11.574 24.4785 12.7393 25.9029 13.8899 27.3392C14.2526 27.7918 14.3923 28.2781 14.1538 28.834C13.9126 29.3958 13.4462 29.5873 12.9047 29.6079C12.4928 29.6236 12.08 29.611 11.6287 29.611Z" fill="url(#paint1_linear_940_3961)"/>
<path d="M2.58236 20.6385H16.1721C17.5967 20.6385 18.7545 19.4116 18.7545 17.9019V4.26527C18.7545 2.7556 17.5967 1.52874 16.1721 1.52874H15.1478V0.76439C15.1478 0.343961 14.8232 0 14.4265 0C14.0297 0 13.7051 0.343961 13.7051 0.76439V1.52874H5.04932V0.76439C5.04932 0.343961 4.72466 0 4.32795 0C3.93121 0 3.60663 0.343961 3.60663 0.76439V1.52874H2.58236C1.15774 1.52874 0 2.7556 0 4.26527V17.9019C0 19.4116 1.15774 20.6385 2.58236 20.6385ZM1.44269 4.26527C1.44269 3.60029 1.95484 3.05756 2.58236 3.05756H3.60663V3.82195C3.60663 4.24234 3.93121 4.5863 4.32795 4.5863C4.72466 4.5863 5.04924 4.24234 5.04924 3.82195V3.05756H13.7051V3.82195C13.7051 4.24234 14.0297 4.5863 14.4265 4.5863C14.8232 4.5863 15.1478 4.24234 15.1478 3.82195V3.05756H16.1721C16.7996 3.05756 17.3117 3.60029 17.3117 4.26527V6.49729H1.44269V4.26527ZM1.44269 8.02607H17.3118V17.9019C17.3118 18.567 16.7997 19.1097 16.1722 19.1097H2.58236C1.95484 19.1097 1.44269 18.567 1.44269 17.9019V8.02607Z" fill="url(#paint2_linear_940_3961)"/>
<path d="M24.7649 40.9476H38.3547C39.7793 40.9476 40.937 39.7207 40.937 38.211V24.5744C40.937 23.0647 39.7793 21.8378 38.3547 21.8378H37.3304V21.0735C37.3304 20.653 37.0058 20.3091 36.609 20.3091C36.2123 20.3091 35.8877 20.653 35.8877 21.0735V21.8378H27.2319V21.0735C27.2319 20.653 26.9072 20.3091 26.5105 20.3091C26.1138 20.3091 25.7892 20.653 25.7892 21.0735V21.8378H24.7649C23.3403 21.8378 22.1826 23.0647 22.1826 24.5744V38.211C22.1826 39.7207 23.3403 40.9476 24.7649 40.9476ZM23.6252 24.5744C23.6252 23.9094 24.1374 23.3666 24.7649 23.3666H25.7892V24.131C25.7892 24.5514 26.1138 24.8954 26.5105 24.8954C26.9072 24.8954 27.2318 24.5514 27.2318 24.131V23.3666H35.8877V24.131C35.8877 24.5514 36.2123 24.8954 36.609 24.8954C37.0058 24.8954 37.3303 24.5514 37.3303 24.131V23.3666H38.3546C38.9821 23.3666 39.4943 23.9094 39.4943 24.5744V26.8064H23.6252V24.5744ZM23.6252 28.3352H39.4944V38.211C39.4944 38.8761 38.9823 39.4187 38.3547 39.4187H24.7649C24.1374 39.4187 23.6252 38.8761 23.6252 38.211V28.3352Z" fill="url(#paint3_linear_940_3961)"/>
<path fill-rule="evenodd" clip-rule="evenodd" d="M4.95323 15.8838C4.60447 15.8838 4.29176 15.824 4.0154 15.7039C3.73904 15.5837 3.51845 15.4061 3.353 15.1711C3.18756 14.9357 3.10037 14.6526 3.09113 14.3212H4.32812C4.34629 14.5083 4.40729 14.6513 4.51143 14.7496C4.61587 14.8482 4.75174 14.8975 4.91934 14.8975C5.09156 14.8975 5.22743 14.8553 5.32694 14.7714C5.42676 14.6872 5.47668 14.571 5.47668 14.4221C5.47668 14.2971 5.43693 14.1939 5.35775 14.1123C5.27827 14.0306 5.18091 13.9634 5.06537 13.9108C4.94984 13.8579 4.78563 13.7979 4.57274 13.7306C4.26465 13.6297 4.01324 13.5292 3.81853 13.4283C3.62351 13.3274 3.45591 13.1785 3.31542 12.9817C3.17493 12.7848 3.10499 12.5282 3.10499 12.2112C3.10499 11.7407 3.26582 11.3721 3.58746 11.1057C3.90911 10.8393 4.32812 10.7061 4.84448 10.7061C5.37008 10.7061 5.7937 10.8393 6.11535 11.1057C6.437 11.3721 6.60922 11.743 6.63202 12.2183H5.3747C5.36546 12.0551 5.30908 11.9268 5.20463 11.8331C5.1005 11.7394 4.96679 11.6927 4.80381 11.6927C4.66332 11.6927 4.54994 11.7322 4.46398 11.8115C4.37802 11.8909 4.33489 12.0048 4.33489 12.1537C4.33489 12.3169 4.4073 12.4439 4.55241 12.5353C4.69721 12.6264 4.92396 12.725 5.23205 12.8305C5.54014 12.9408 5.79031 13.0466 5.98287 13.1475C6.17543 13.2481 6.34179 13.3947 6.48228 13.5866C6.62277 13.7786 6.69302 14.0261 6.69302 14.3284C6.69302 14.6164 6.62401 14.8782 6.48568 15.1133C6.34765 15.3487 6.14708 15.5357 5.88428 15.6751C5.62148 15.8142 5.31123 15.8838 4.95323 15.8838ZM8.56868 11.7648V12.7874H10.1248V13.7378H8.56868V14.8469H10.3288V15.8335H7.40656V10.7782H10.3288V11.7648H8.56868ZM15.3507 15.8335H14.1886L12.2451 12.7152V15.8335H11.083V10.7782H12.2451L14.1886 13.9108V10.7782H15.3507V15.8335Z" fill="url(#paint4_linear_940_3961)"/>
<path fill-rule="evenodd" clip-rule="evenodd" d="M27.3667 35.9425L26.3746 34.0342H26.0958V35.9425H24.934V30.8872H26.8842C27.2604 30.8872 27.5808 30.9567 27.8457 31.0958C28.111 31.2352 28.3091 31.4259 28.4403 31.6685C28.5719 31.9111 28.6375 32.1811 28.6375 32.4785C28.6375 32.8148 28.5482 33.1148 28.3692 33.3789C28.1902 33.6427 27.9261 33.8301 27.5774 33.9405L28.6782 35.9425H27.3667ZM26.0958 33.1628H26.8164C27.0293 33.1628 27.1889 33.1076 27.2955 32.9973C27.4018 32.8866 27.4551 32.7305 27.4551 32.5291C27.4551 32.3371 27.4018 32.1856 27.2955 32.0753C27.1889 31.9649 27.0293 31.9098 26.8164 31.9098H26.0958V33.1628ZM32.3343 35.0496H30.5539L30.2686 35.9425H29.0519L30.7781 30.8872H32.1239L33.8498 35.9425H32.6199L32.3343 35.0496ZM32.0355 34.0988L31.4442 32.2483L30.8598 34.0988H32.0355ZM37.2613 33.3499C37.5377 33.4126 37.7595 33.5575 37.9274 33.7857C38.095 34.0136 38.1788 34.2742 38.1788 34.567C38.1788 34.9895 38.0395 35.3245 37.7607 35.5716C37.4822 35.8188 37.0937 35.9425 36.5952 35.9425H34.3729V30.8872H36.5206C37.0053 30.8872 37.3848 31.0047 37.6587 31.2398C37.9329 31.4752 38.07 31.7945 38.07 32.1977C38.07 32.4955 37.9964 32.7426 37.8491 32.9395C37.7019 33.1364 37.5059 33.2732 37.2613 33.3499ZM35.5351 32.9323H36.2964C36.4864 32.9323 36.6328 32.8879 36.7345 32.7991C36.8364 32.7103 36.8876 32.5794 36.8876 32.4067C36.8876 32.2336 36.8364 32.1017 36.7345 32.0106C36.6328 31.9192 36.4864 31.8738 36.2964 31.8738H35.5351V32.9323ZM36.3916 34.9487C36.5863 34.9487 36.7369 34.902 36.8435 34.8083C36.9498 34.7146 37.0031 34.5791 37.0031 34.4015C37.0031 34.2239 36.9477 34.0845 36.8364 33.9836C36.7255 33.8827 36.5727 33.8324 36.378 33.8324H35.5351V34.9487H36.3916Z" fill="url(#paint5_linear_940_3961)"/>
<defs>
<linearGradient id="paint0_linear_940_3961" x1="40.9372" y1="-0.0004512" x2="-2.22666" y2="38.4481" gradientUnits="userSpaceOnUse">
<stop stop-color="#1BA6DD"/>
<stop offset="0.43" stop-color="#1F7EB0"/>
<stop offset="1" stop-color="#28244B"/>
</linearGradient>
<linearGradient id="paint1_linear_940_3961" x1="40.9367" y1="-0.000240608" x2="-2.22711" y2="38.4483" gradientUnits="userSpaceOnUse">
<stop stop-color="#1BA6DD"/>
<stop offset="0.43" stop-color="#1F7EB0"/>
<stop offset="1" stop-color="#28244B"/>
</linearGradient>
<linearGradient id="paint2_linear_940_3961" x1="40.9367" y1="7.17526e-07" x2="-2.22711" y2="38.4486" gradientUnits="userSpaceOnUse">
<stop stop-color="#1BA6DD"/>
<stop offset="0.43" stop-color="#1F7EB0"/>
<stop offset="1" stop-color="#28244B"/>
</linearGradient>
<linearGradient id="paint3_linear_940_3961" x1="40.937" y1="-0.00115474" x2="-2.22678" y2="38.4475" gradientUnits="userSpaceOnUse">
<stop stop-color="#1BA6DD"/>
<stop offset="0.43" stop-color="#1F7EB0"/>
<stop offset="1" stop-color="#28244B"/>
</linearGradient>
<linearGradient id="paint4_linear_940_3961" x1="40.937" y1="2.04801" x2="-2.22671" y2="40.4965" gradientUnits="userSpaceOnUse">
<stop stop-color="#1BA6DD"/>
<stop offset="0.43" stop-color="#1F7EB0"/>
<stop offset="1" stop-color="#28244B"/>
</linearGradient>
<linearGradient id="paint5_linear_940_3961" x1="40.9371" y1="-0.000822153" x2="-2.22658" y2="38.4477" gradientUnits="userSpaceOnUse">
<stop stop-color="#1BA6DD"/>
<stop offset="0.43" stop-color="#1F7EB0"/>
<stop offset="1" stop-color="#28244B"/>
</linearGradient>
</defs>
</svg>
