<svg width="39" height="43" viewBox="0 0 39 43" fill="none" xmlns="http://www.w3.org/2000/svg">
<path fill-rule="evenodd" clip-rule="evenodd" d="M7.44795 -1.25847e-05C11.3306 0.0160195 23.7932 0.00848126 25.0903 0.00954299C25.8801 0.0102862 26.03 0.158397 26.03 0.940042C26.0322 2.195 26.0311 3.45007 26.0311 4.79263H26.5688C27.7258 4.79263 28.8817 4.78944 30.0386 4.7939C30.7198 4.79656 31.0077 5.06178 31.0077 5.71272C31.012 11.5871 31.0109 17.4614 31.0055 23.3357C31.0055 23.5067 30.9979 23.7339 30.8936 23.8359C30.7198 24.0047 30.4514 24.2055 30.2472 24.183C30.0462 24.1608 29.8137 23.908 29.7073 23.7011C29.6106 23.5137 29.6541 23.2516 29.6541 23.0226C29.6519 17.626 29.6519 12.2294 29.6519 6.83285V6.10121H29.0457C23.6791 6.10121 18.3126 6.09654 12.946 6.11512C12.682 6.11607 12.3322 6.24868 12.1692 6.44001C10.5038 8.3955 8.86889 10.3756 7.2285 12.3501C7.17527 12.4138 7.14054 12.492 7.06667 12.6124H12.682V11.2881C12.682 10.5803 12.6766 9.87258 12.6852 9.16483C12.6896 8.71009 12.971 8.37288 13.3382 8.42194C13.7325 8.47449 13.991 8.69894 13.991 9.13138C13.9889 10.4938 13.9965 11.8563 13.9867 13.2186C13.9823 13.7147 13.738 13.9223 13.1883 13.9234C11.1101 13.9275 9.03185 13.9252 6.95474 13.9252H6.32791V38.1987H6.9689C11.0699 38.1987 15.1719 38.1987 19.274 38.1989C19.4359 38.1989 19.5988 38.2025 19.7617 38.2004C20.1898 38.1951 20.4733 38.3923 20.4831 38.8153C20.4929 39.2617 20.1941 39.4725 19.7585 39.5053C19.651 39.5134 19.5412 39.5072 19.4337 39.5072C14.9525 39.5072 10.4713 39.5075 5.99007 39.507C5.12968 39.5069 4.90483 39.2881 4.90266 38.442C4.8994 37.2048 4.90155 35.9675 4.90155 34.6403H4.30082C3.12647 34.64 1.95211 34.6451 0.777764 34.6373C0.205257 34.6335 0.00426759 34.4304 0.00209489 33.8654C-0.00225052 32.4508 -0.00332626 15.0176 0.012969 8.73886C0.0140554 8.44774 0.11401 8.09715 0.295431 7.87525C2.33017 5.39505 4.39424 2.93843 6.43766 0.464812C6.71142 0.132491 7.0058 -0.00181752 7.44795 -1.25847e-05ZM24.7036 1.31207C24.5243 1.3023 24.4005 1.28967 24.2766 1.28967C18.821 1.28871 13.3642 1.29339 7.90747 1.27852C7.54246 1.27757 7.35018 1.44373 7.15355 1.6807C5.31979 3.88899 3.47625 6.09027 1.65878 8.31173C1.4665 8.54796 1.32314 8.90067 1.32205 9.19976C1.30467 17.055 1.30789 24.9102 1.30789 32.7654V33.3245H4.90155V32.6765C4.90155 26.3604 4.89719 20.0444 4.91566 13.7283C4.91674 13.3838 5.01999 12.9674 5.23292 12.707C7.26113 10.2214 9.32735 7.76526 11.3719 5.29175C11.6706 4.93065 12.0052 4.78191 12.4854 4.78392C16.3517 4.79953 20.218 4.79263 24.0843 4.79263H24.7036V1.31207Z" fill="url(#paint0_linear_341_443)"/>
<path d="M36.9547 34.0758C36.9547 33.7753 36.972 33.4735 36.9506 33.1745C36.9202 32.7502 37.1126 32.4908 37.5228 32.4091C37.8716 32.3395 38.2201 32.665 38.2722 33.0881C38.5218 35.1139 38.1763 37.0388 37.0731 38.7733C35.1274 41.8326 32.2626 43.2356 28.6131 42.8833C24.9945 42.5341 21.9511 39.7453 21.1543 36.242C20.0908 31.5669 22.8967 27.0432 27.6398 25.8855C30.2323 25.2527 32.6329 25.7756 34.7933 27.3179C35.2725 27.6599 35.354 27.9877 35.086 28.3381C34.8394 28.6604 34.4425 28.6746 33.988 28.3474C29.7333 25.2845 23.8585 27.4584 22.5131 32.4136C21.3857 36.5655 24.1349 40.7996 28.4899 41.5392C32.3135 42.1886 36.1196 39.6383 36.8619 35.7071C36.9627 35.1732 36.9737 34.623 37.0263 34.0802C37.0024 34.0787 36.9786 34.0772 36.9547 34.0758Z" fill="url(#paint1_linear_341_443)"/>
<path d="M29.4613 36.0631C29.7103 35.7448 29.8995 35.4351 30.1532 35.1891C32.6663 32.7521 35.1932 30.3287 37.7068 27.8922C37.9846 27.623 38.3107 27.4759 38.6151 27.6786C38.8009 27.8023 38.8834 28.1372 38.9181 28.3896C38.9357 28.5179 38.767 28.6957 38.6449 28.8136C35.9086 31.4569 33.1705 34.0984 30.424 36.7315C29.7418 37.3855 28.9481 37.3855 28.2656 36.738C27.4751 35.988 26.7084 35.2141 25.9292 34.4527C25.6169 34.1473 25.5436 33.8149 25.8424 33.4718C26.1282 33.1437 26.4874 33.1581 26.8698 33.5254C27.6921 34.3151 28.4996 35.1194 29.4613 36.0631Z" fill="url(#paint2_linear_341_443)"/>
<path d="M17.9684 21.5638C20.4962 21.5644 23.024 21.5626 25.5518 21.5658C26.1283 21.5666 26.467 21.9138 26.3339 22.3681C26.2114 22.7861 25.8774 22.8488 25.4817 22.8481C21.7983 22.8408 18.1149 22.8438 14.4314 22.8438C13.0592 22.8437 11.687 22.8489 10.3147 22.8409C9.75369 22.8376 9.34848 22.3639 9.599 21.9592C9.72425 21.7568 10.0783 21.5826 10.3309 21.5799C12.8765 21.5524 15.4225 21.5632 17.9684 21.5638Z" fill="url(#paint3_linear_341_443)"/>
<path d="M17.932 18.3111C15.5322 18.3111 13.1326 18.3115 10.7328 18.3102C10.5347 18.3101 10.3029 18.36 10.1462 18.278C9.91914 18.1593 9.61648 17.96 9.58661 17.7605C9.55651 17.5591 9.77704 17.2666 9.96857 17.1069C10.1056 16.9926 10.3758 17.0066 10.5866 17.0063C15.4943 17.0015 20.402 17.0016 25.3097 17.0061C25.5209 17.0063 25.7908 16.9889 25.9291 17.102C26.1207 17.2586 26.3389 17.5471 26.3125 17.7499C26.2865 17.9493 25.998 18.1934 25.7723 18.2704C25.497 18.3643 25.1668 18.31 24.8605 18.3102C22.5509 18.3118 20.2414 18.3111 17.932 18.3111Z" fill="url(#paint4_linear_341_443)"/>
<path d="M15.9951 26.0955C17.6556 26.0955 19.3161 26.0925 20.9767 26.0971C21.5795 26.0987 21.8565 26.2998 21.8642 26.7132C21.8718 27.1295 21.5281 27.4013 20.9565 27.4018C17.6168 27.4053 14.277 27.4046 10.9374 27.4001C10.7799 27.3999 10.5664 27.4037 10.4763 27.3131C10.2808 27.1161 10.0077 26.8443 10.0311 26.6312C10.0529 26.4349 10.4138 26.1336 10.6376 26.1228C11.9524 26.0587 13.2706 26.0649 14.5877 26.0507C15.0568 26.0456 15.5259 26.0498 15.995 26.0498C15.9951 26.065 15.9951 26.0803 15.9951 26.0955Z" fill="url(#paint5_linear_341_443)"/>
<path d="M14.4292 31.887C13.2396 31.887 12.05 31.8918 10.8604 31.8849C10.2844 31.8816 9.99051 31.6454 10.0102 31.2323C10.0291 30.8341 10.3563 30.594 10.9041 30.5935C13.2474 30.5912 15.5906 30.5815 17.9336 30.6075C18.2007 30.6105 18.5617 30.7508 18.7113 30.949C19.0204 31.3586 18.6758 31.8697 18.1061 31.8774C16.8807 31.8942 15.6549 31.8826 14.4292 31.8826V31.887Z" fill="url(#paint6_linear_341_443)"/>
<defs>
<linearGradient id="paint0_linear_341_443" x1="38.9196" y1="-2.08424e-06" x2="0.997081" y2="43.7997" gradientUnits="userSpaceOnUse">
<stop stop-color="#1BA6DD"/>
<stop offset="0.43" stop-color="#1F7EB0"/>
<stop offset="1" stop-color="#28244B"/>
</linearGradient>
<linearGradient id="paint1_linear_341_443" x1="38.9194" y1="-1.97125e-07" x2="0.996879" y2="43.7997" gradientUnits="userSpaceOnUse">
<stop stop-color="#1BA6DD"/>
<stop offset="0.43" stop-color="#1F7EB0"/>
<stop offset="1" stop-color="#28244B"/>
</linearGradient>
<linearGradient id="paint2_linear_341_443" x1="38.9193" y1="5.03889e-06" x2="0.996881" y2="43.7997" gradientUnits="userSpaceOnUse">
<stop stop-color="#1BA6DD"/>
<stop offset="0.43" stop-color="#1F7EB0"/>
<stop offset="1" stop-color="#28244B"/>
</linearGradient>
<linearGradient id="paint3_linear_341_443" x1="38.9194" y1="1.52252e-06" x2="0.99692" y2="43.7997" gradientUnits="userSpaceOnUse">
<stop stop-color="#1BA6DD"/>
<stop offset="0.43" stop-color="#1F7EB0"/>
<stop offset="1" stop-color="#28244B"/>
</linearGradient>
<linearGradient id="paint4_linear_341_443" x1="38.9194" y1="-1.5545e-06" x2="0.996918" y2="43.7997" gradientUnits="userSpaceOnUse">
<stop stop-color="#1BA6DD"/>
<stop offset="0.43" stop-color="#1F7EB0"/>
<stop offset="1" stop-color="#28244B"/>
</linearGradient>
<linearGradient id="paint5_linear_341_443" x1="38.9193" y1="4.23891e-06" x2="0.996805" y2="43.7997" gradientUnits="userSpaceOnUse">
<stop stop-color="#1BA6DD"/>
<stop offset="0.43" stop-color="#1F7EB0"/>
<stop offset="1" stop-color="#28244B"/>
</linearGradient>
<linearGradient id="paint6_linear_341_443" x1="38.9194" y1="3.38307e-06" x2="0.99691" y2="43.7997" gradientUnits="userSpaceOnUse">
<stop stop-color="#1BA6DD"/>
<stop offset="0.43" stop-color="#1F7EB0"/>
<stop offset="1" stop-color="#28244B"/>
</linearGradient>
</defs>
</svg>
