<svg width="42" height="36" viewBox="0 0 42 36" fill="none" xmlns="http://www.w3.org/2000/svg">
<path fill-rule="evenodd" clip-rule="evenodd" d="M41.4277 18.4016C41.2974 19.0415 41.2319 19.7033 41.0258 20.3179C40.0167 23.3265 37.9103 25.139 34.8078 25.6503C32.303 26.0631 30.0973 25.2762 28.252 23.5173C28.1358 23.4066 28.0379 23.2765 27.9027 23.1226C26.0704 25.4775 23.7175 26.7668 20.7629 26.7618C17.8245 26.7569 15.4762 25.4868 13.6822 23.171C9.94642 27.1044 4.70299 26.0214 2.21617 23.2838C-0.544878 20.2444 -0.541806 15.7437 2.21771 12.7074C4.67332 10.0055 9.92451 8.86643 13.6688 12.8065C17.2482 7.95416 24.4278 8.11706 27.8727 12.8179C28.2116 12.5162 28.5367 12.1988 28.8901 11.9169C33.3053 8.39412 39.9362 10.7328 41.1899 16.2547C41.2901 16.696 41.3494 17.1467 41.4277 17.5931V18.4016ZM9.88004 16.7493C9.87972 15.6167 8.99591 14.7263 7.87345 14.7278C6.75988 14.7291 5.84785 15.6368 5.84494 16.7465C5.84195 17.8664 6.78745 18.8153 7.89123 18.8002C9.00901 18.7848 9.88037 17.8863 9.88004 16.7493ZM37.6509 23.096C37.1911 22.2429 36.5061 21.6318 35.5663 21.4102C34.3804 21.1309 33.1578 21.1634 31.9678 21.3637C30.9461 21.5355 30.1764 22.1565 29.6947 23.0968C31.8099 24.9107 35.4034 24.9882 37.6509 23.096ZM3.89623 23.0897C6.15353 25.0448 9.91263 24.8637 11.844 23.0698C11.3751 22.2213 10.6908 21.5424 9.73824 21.4242C8.56573 21.2788 7.35458 21.2549 6.18005 21.3745C5.1529 21.4791 4.39554 22.1663 3.89623 23.0897ZM31.6619 16.7425C31.6613 17.8991 32.5577 18.8111 33.6842 18.8001C34.7799 18.7895 35.6991 17.855 35.698 16.7528C35.697 15.6413 34.7899 14.7337 33.6743 14.7279C32.5507 14.722 31.6625 15.6112 31.6619 16.7425ZM28.2769 18.0185C28.3419 13.9074 24.9096 10.5162 20.8723 10.466C16.6751 10.414 13.3018 13.8843 13.253 17.8969C13.2019 22.0897 16.6617 25.4821 20.6701 25.5314C24.8457 25.5828 28.3288 22.1117 28.2769 18.0185ZM14.1565 17.9882C14.157 14.3692 17.1544 11.3694 20.77 11.3694C24.4033 11.3694 27.3886 14.3731 27.3865 18.0269C27.3845 21.6536 24.3728 24.6612 20.7116 24.6166C17.0631 24.572 14.2 21.6661 14.1565 17.9882ZM20.4722 23.3471C23.3369 23.5696 26.0165 21.2625 26.1314 18.2072C26.2302 15.5791 24.3649 13.0399 21.4911 12.6761C17.9988 12.234 15.4974 14.9508 15.4053 17.8079C15.3107 20.7392 17.635 23.2553 20.4722 23.3471ZM21.4124 17.352C22.177 17.352 22.8996 17.3473 23.6219 17.3555C23.7933 17.3574 24.0063 17.3482 24.1253 17.4408C24.2985 17.5754 24.5156 17.8022 24.5082 17.9812C24.5 18.1822 24.2895 18.4045 24.1149 18.5578C24.0136 18.6467 23.8099 18.638 23.6519 18.6392C22.7782 18.6461 21.9043 18.6449 21.0306 18.6418C20.3819 18.6394 20.1336 18.3895 20.1314 17.7373C20.1283 16.8618 20.1272 15.9863 20.1337 15.1108C20.1349 14.9523 20.1242 14.7472 20.2128 14.6463C20.3658 14.472 20.5887 14.2631 20.7894 14.2555C20.968 14.2488 21.1936 14.4662 21.3269 14.6399C21.4187 14.7595 21.4072 14.9731 21.4091 15.145C21.4169 15.8585 21.4124 16.5723 21.4124 17.352ZM32.9101 19.9896C30.8782 18.9947 30.1468 17.8322 30.4602 16.0949C30.7081 14.7205 31.9908 13.5704 33.4543 13.4799C34.7963 13.3969 36.1946 14.1327 36.7381 15.6499C37.0655 16.5635 36.9931 17.4704 36.5266 18.3329C36.0694 19.1783 35.3299 19.675 34.4399 19.9867C36.2122 20.0201 37.5959 20.7513 38.6 22.2147C39.9654 20.5717 40.4487 18.7177 40.0238 16.7096C39.4807 14.1427 37.8848 12.4055 35.3505 11.7315C32.8266 11.0604 30.6145 11.7609 28.8087 13.6821C28.6162 13.887 28.5821 14.0504 28.7094 14.3164C29.3228 15.5979 29.5631 16.955 29.5093 18.3765C29.4643 19.5614 29.1804 20.677 28.691 21.75C28.6363 21.87 28.6582 22.0252 28.6446 22.164C29.8353 20.7269 30.9475 20.0891 32.9101 19.9896ZM12.8045 22.2016C12.8456 22.1868 12.8867 22.1718 12.9279 22.1569C12.8999 22.0112 12.8988 21.8535 12.84 21.7217C11.7337 19.2424 11.7271 16.7643 12.8448 14.2898C12.9476 14.0625 12.9427 13.911 12.7675 13.7211C11.1322 11.9481 9.12462 11.2042 6.74904 11.6115C2.56413 12.3291 0.203271 16.8098 1.96474 20.6651C2.21472 21.2122 2.57416 21.709 2.9108 22.2761C3.97263 20.7195 5.36318 20.0249 7.11899 19.9846C6.29089 19.7117 5.59909 19.2614 5.12339 18.5218C4.64155 17.7727 4.50735 16.9496 4.68262 16.0898C4.98709 14.5968 6.20075 13.5633 7.74959 13.4784C9.18412 13.3998 10.5438 14.3654 10.9761 15.7338C11.264 16.6453 11.1818 17.5325 10.7071 18.3742C10.242 19.1986 9.51292 19.6864 8.63332 19.9891C9.47905 20.01 10.2662 20.1813 11.0076 20.5661C11.7503 20.9518 12.3114 21.5365 12.8045 22.2016ZM26.95 34.4263C25.8677 34.674 24.8368 34.9403 23.7935 35.1409C22.5606 35.3779 21.3138 35.353 20.0661 35.2318C17.8169 35.0133 15.7384 34.2936 13.8121 33.1226C12.6802 32.4346 11.6627 31.6014 10.7567 30.6337C10.3597 30.2096 10.3085 29.6444 10.6168 29.2418C10.9601 28.7933 11.4915 28.6845 12.014 29.0136C13.7503 30.1073 15.6293 30.8044 17.662 31.0613C20.1503 31.3758 22.5438 31.0063 24.8353 29.9829C24.8584 29.9726 24.8753 29.9485 24.9285 29.9009C24.7941 29.5994 24.6526 29.2858 24.5142 28.9709C24.3254 28.5413 24.3365 28.1329 24.6694 27.7742C25.0026 27.4151 25.4087 27.37 25.8485 27.5369C27.3606 28.1108 28.8741 28.6814 30.3819 29.2668C31.0494 29.5259 31.2779 30.0543 31.0255 30.7301C30.4636 32.2348 29.8876 33.7341 29.3241 35.2381C29.15 35.7028 28.8245 35.9926 28.3386 35.9999C27.8749 36.0068 27.5327 35.7538 27.3471 35.3078C27.2145 34.9894 27.0642 34.6784 26.95 34.4263ZM13.0708 31.0742C13.9984 31.834 15.0059 32.4307 16.0883 32.9032C18.3573 33.8938 20.7317 34.3049 23.1819 33.9703C24.3616 33.8093 25.5109 33.4137 26.6679 33.1021C27.2253 32.952 27.6862 33.1147 27.9492 33.625C28.0642 33.8481 28.1649 34.0786 28.31 34.3859C28.8328 33.0145 29.3251 31.7233 29.8341 30.3881C28.5134 29.8837 27.2137 29.3874 25.8339 28.8604C25.9489 29.1229 26.0231 29.2914 26.0967 29.4601C26.4312 30.2275 26.2524 30.7218 25.4957 31.058C22.3167 32.47 19.037 32.7913 15.664 31.9103C14.7943 31.6831 13.9495 31.3604 13.0708 31.0742ZM16.5952 6.04773C16.7569 6.41025 16.9036 6.72522 17.0384 7.04521C17.2131 7.46003 17.2054 7.85892 16.8845 8.20713C16.5551 8.56471 16.1534 8.63076 15.7098 8.46212C14.186 7.88294 12.6607 7.3078 11.1419 6.71568C10.4922 6.46239 10.2697 5.94069 10.5153 5.28139C11.0808 3.76392 11.6595 2.25137 12.2298 0.735668C12.3986 0.286812 12.7211 0.0153312 13.1908 0.000617233C13.661 -0.0140967 13.9996 0.234909 14.189 0.678025C14.325 0.996397 14.474 1.30919 14.6044 1.59635C15.5072 1.3691 16.3725 1.09527 17.2585 0.937783C21.4831 0.186643 25.3456 1.08363 28.8085 3.6188C29.5204 4.13993 30.156 4.77077 30.7972 5.38229C31.2078 5.77391 31.2285 6.37435 30.9122 6.77203C30.5738 7.1976 30.0425 7.30384 29.5424 6.98862C27.8072 5.89461 25.9299 5.19974 23.8978 4.93513C21.3794 4.60722 18.9699 5.0104 16.5952 6.04773ZM28.4475 4.91136C28.409 4.87619 28.3725 4.83828 28.3314 4.80634C25.932 2.94648 23.1998 2.00915 20.1826 1.92168C18.4128 1.87034 16.6955 2.19696 15.0384 2.83273C14.2977 3.11682 13.841 2.91883 13.5094 2.19817C13.4296 2.02459 13.3435 1.85385 13.2281 1.61519C12.7046 2.9924 12.2125 4.28707 11.7105 5.60801C13.0472 6.11807 14.3378 6.6105 15.7046 7.13212C15.606 6.89961 15.5473 6.75465 15.4834 6.61204C15.0918 5.73801 15.267 5.28422 16.1542 4.88945C17.4441 4.31553 18.7865 3.93822 20.1875 3.74532C21.7019 3.53674 23.2031 3.56948 24.7085 3.82414C25.9931 4.04146 27.2197 4.43486 28.4475 4.91136Z" fill="url(#paint0_linear_940_3937)"/>
<defs>
<linearGradient id="paint0_linear_940_3937" x1="44.6391" y1="-3.03591e-05" x2="0.146678" y2="41.3931" gradientUnits="userSpaceOnUse">
<stop stop-color="#1BA6DD"/>
<stop offset="0.43" stop-color="#1F7EB0"/>
<stop offset="1" stop-color="#28244B"/>
</linearGradient>
</defs>
</svg>
