<svg width="36" height="36" viewBox="0 0 36 36" fill="none" xmlns="http://www.w3.org/2000/svg">
<path fill-rule="evenodd" clip-rule="evenodd" d="M34.7857 24.2241C38.9388 31.082 31.0787 38.937 24.224 34.7857C12.8381 39.2695 -0.22935 30.2288 0.00305594 17.9607C0.00305594 8.059 8.05895 0.00310584 17.9606 0.00310584C30.2294 -0.231227 39.2675 12.8387 34.7857 24.2241ZM33.3527 17.9607C33.3527 19.3436 33.1569 20.713 32.7903 22.0432C33.171 22.325 33.5241 22.6409 33.8471 22.9869C37.3691 12.5197 29.0205 1.1003 17.9606 1.28584C8.76645 1.28584 1.28579 8.76585 1.28579 17.9607C1.0996 29.0224 12.519 37.3666 22.9869 33.8471C22.6409 33.5248 22.325 33.1711 22.0431 32.7904C20.7129 33.157 19.3435 33.3528 17.9606 33.3528C13.7388 33.3483 9.76669 31.577 6.96369 28.6745C5.01007 26.6772 3.5739 24.156 2.9428 21.3062C2.77075 20.4805 4.00468 20.2103 4.19536 21.0288C4.73914 23.4845 5.93199 25.6782 7.56076 27.4534L7.98384 27.0303C8.23422 26.7799 8.63997 26.7799 8.891 27.0303C9.14138 27.2813 9.14138 27.6871 8.891 27.9375L8.47112 28.3567C10.8581 30.5312 13.9693 31.8864 17.3193 32.0418V31.4287C17.3327 30.5909 18.5853 30.5793 18.602 31.4287V32.0463C19.5271 32.0039 20.4439 31.8736 21.3421 31.6515C20.8246 30.6172 20.5261 29.4552 20.5261 28.2219C20.4388 27.3597 21.2528 23.1943 22.5612 23.95C22.8636 24.1355 22.9574 24.5303 22.7718 24.8321C22.1414 25.8554 21.8088 27.0277 21.8088 28.2219C21.8088 31.7587 24.6856 34.6355 28.2218 34.6355C31.7586 34.6355 34.6355 31.7587 34.6355 28.2225C34.7234 23.2836 28.9762 20.1024 24.832 22.7719C24.1085 23.202 23.4472 22.1318 24.1598 21.6792C26.3683 20.2802 29.3646 20.1531 31.6514 21.3421C31.8736 20.444 32.0039 19.5272 32.0462 18.602H31.4286C31.0743 18.602 30.7873 18.3151 30.7873 17.9607C30.7873 17.6063 31.0749 17.3193 31.4286 17.3193H32.054C31.9005 13.9115 30.5343 10.8151 28.3753 8.45256L27.9374 8.89105C27.687 9.14143 27.2813 9.14143 27.0303 8.89105C26.7799 8.64002 26.7799 8.23427 27.0303 7.98389L27.4687 7.54604C25.1062 5.38697 22.0098 4.02078 18.602 3.86734V4.49266C18.5885 5.32983 17.336 5.34268 17.3193 4.49266V3.86734C13.9115 4.02078 10.8151 5.38697 8.45251 7.54604L8.891 7.98389C9.14138 8.23427 9.14138 8.64002 8.891 8.89105C8.63997 9.14143 8.23422 9.14143 7.98384 8.89105L7.54599 8.45256C5.38692 10.8151 4.02073 13.9115 3.86729 17.3193H4.49261C5.32979 17.3328 5.34198 18.586 4.49261 18.602H3.20988C2.85549 18.602 2.56851 18.3151 2.56851 17.9607C2.56787 13.7029 4.30899 9.84057 7.112 7.05362C12.8464 1.11763 23.0748 1.11891 28.8093 7.05362C31.6123 9.84057 33.3534 13.7029 33.3527 17.9607ZM10.2578 21.1508C9.85208 20.1717 10.3188 19.0437 11.2992 18.6373L15.6712 16.8262C15.7701 16.6285 15.8927 16.4468 16.0365 16.2818V8.98221C16.1039 6.44179 19.8192 6.44885 19.8847 8.98221V16.2818C21.3466 17.8528 20.1203 20.573 17.9606 20.5261C17.6743 20.5261 17.4034 20.4677 17.1453 20.381L12.7719 22.1928C11.8147 22.5953 10.6636 22.1408 10.2578 21.1508ZM12.2808 21.0076L15.921 19.4996C15.6635 19.1593 15.4927 18.7561 15.4311 18.3144L11.7897 19.8225C11.0167 20.1595 11.4969 21.3164 12.2808 21.0076ZM17.3193 15.4864C17.5253 15.4331 17.7378 15.3952 17.9606 15.3952C18.1834 15.3952 18.3959 15.4331 18.602 15.4864V8.98221C18.602 8.62846 18.3144 8.34085 17.9606 8.34085C17.6069 8.34085 17.3193 8.62846 17.3193 8.98221V15.4864ZM17.9606 19.2434C19.6517 19.1997 19.6523 16.7222 17.9606 16.6779C16.2696 16.7216 16.2689 19.1991 17.9606 19.2434ZM32.5534 24.8616C32.9123 24.8616 33.2044 25.1537 33.2044 25.5126V31.3722C33.2044 31.7311 32.9123 32.0232 32.5534 32.0232H24.0899C23.731 32.0232 23.4389 31.7311 23.4389 31.3722V25.5126C23.4389 25.1537 23.731 24.8616 24.0899 24.8616H26.7272C26.8781 24.1201 27.5355 23.5596 28.322 23.5596C29.1078 23.5596 29.7652 24.1201 29.9161 24.8616H32.5534ZM30.6005 28.1166V28.7676H30.9259V28.1166H30.6005ZM25.7174 28.1166V28.7676H26.0428V28.1166H25.7174ZM24.0899 31.3722H32.5522L32.5528 28.4344C32.2799 28.6405 31.9442 28.7676 31.5769 28.7676V29.0931C31.5769 29.2728 31.4312 29.4186 31.2514 29.4186H30.275C30.0945 29.4186 29.9495 29.2728 29.9495 29.0931V28.7676H26.6938V29.0931C26.6938 29.2728 26.5481 29.4186 26.3683 29.4186H25.3919C25.2121 29.4186 25.0664 29.2728 25.0664 29.0931V28.7676C24.6985 28.7676 24.3627 28.6405 24.0899 28.4344V31.3722ZM28.322 24.2106C27.8976 24.2106 27.54 24.4835 27.4052 24.8616H29.2381C29.1033 24.4835 28.7457 24.2106 28.322 24.2106ZM24.0899 25.5126V27.1401C24.0899 27.6787 24.5284 28.1166 25.0664 28.1166V27.7911C25.0664 27.6113 25.2121 27.4656 25.3919 27.4656H26.3683C26.5481 27.4656 26.6938 27.6113 26.6938 27.7911V28.1166H29.9495V27.7911C29.9495 27.6113 30.0945 27.4656 30.275 27.4656H31.2514C31.4312 27.4656 31.5769 27.6113 31.5769 27.7911V28.1166C32.1143 28.1166 32.5515 27.68 32.5534 27.1427V25.5126H24.0899ZM27.3455 27.4656C27.1657 27.4656 27.02 27.3198 27.02 27.1401V26.1636C27.02 25.9838 27.1657 25.8381 27.3455 25.8381H29.2985C29.4782 25.8381 29.624 25.9838 29.624 26.1636V27.1401C29.624 27.3198 29.4782 27.4656 29.2985 27.4656H27.3455ZM27.671 26.4891V26.8146H28.973V26.4891H27.671Z" fill="url(#paint0_linear_940_3977)"/>
<defs>
<linearGradient id="paint0_linear_940_3977" x1="35.952" y1="7.60732e-05" x2="0.000103959" y2="35.9524" gradientUnits="userSpaceOnUse">
<stop stop-color="#1BA6DD"/>
<stop offset="0.43" stop-color="#1F7EB0"/>
<stop offset="1" stop-color="#28244B"/>
</linearGradient>
</defs>
</svg>
