<?xml version="1.0" standalone="no"?>
<!DOCTYPE svg PUBLIC "-//W3C//DTD SVG 20010904//EN"
 "http://www.w3.org/TR/2001/REC-SVG-20010904/DTD/svg10.dtd">
<svg version="1.0" xmlns="http://www.w3.org/2000/svg"
 width="100.000000pt" height="100.000000pt" viewBox="0 0 100.000000 100.000000"
 preserveAspectRatio="xMidYMid meet">

<g transform="translate(0.000000,100.000000) scale(0.100000,-0.100000)"
fill="#000000" stroke="none">
<path d="M127 872 c-28 -30 -20 -54 38 -112 54 -55 55 -57 44 -89 -28 -79 8
-198 99 -332 57 -85 178 -229 192 -229 5 0 37 33 71 73 34 39 65 76 70 81 5 6
43 -23 93 -72 85 -84 111 -96 140 -66 30 30 18 55 -72 147 l-88 89 39 79 c27
54 40 96 44 137 14 149 -86 270 -251 304 -46 10 -64 9 -116 -6 -35 -9 -82 -30
-107 -47 l-44 -31 -49 46 c-53 50 -78 56 -103 28z m90 -64 c39 -39 57 -50 66
-43 108 82 184 106 272 86 73 -16 143 -65 180 -125 26 -43 30 -59 30 -121 0
-64 -4 -80 -42 -157 -24 -47 -43 -90 -43 -94 0 -5 41 -50 91 -100 84 -84 101
-114 66 -114 -7 0 -50 38 -97 85 -47 47 -89 85 -95 84 -5 0 -39 -36 -74 -80
-36 -43 -68 -79 -72 -79 -4 0 -47 48 -94 108 -143 177 -198 317 -165 417 l12
37 -57 58 c-39 39 -56 64 -52 74 9 24 17 20 74 -36z"/>
</g>
</svg>
