<svg width="39" height="33" viewBox="0 0 39 33" fill="none" xmlns="http://www.w3.org/2000/svg">
<g clip-path="url(#clip0_338_256)">
<path d="M24.4696 3.21417C24.4696 2.75136 24.4789 2.28839 24.467 1.82588C24.4557 1.38785 24.2808 1.1877 23.9338 1.17499C23.5677 1.16159 23.3299 1.37585 23.3223 1.79908C23.3056 2.73718 23.3072 3.67598 23.322 4.61417C23.3282 5.00959 23.6088 5.28558 23.9266 5.26962C24.2399 5.2539 24.4564 5.00115 24.4667 4.60247C24.4786 4.13996 24.4694 3.67691 24.4696 3.21417ZM14.5423 3.20333C14.5423 3.67862 14.5396 4.15398 14.5432 4.62935C14.546 4.98853 14.7595 5.24445 15.0644 5.26591C15.3512 5.28604 15.663 5.03027 15.6697 4.6955C15.6893 3.70673 15.6902 2.71705 15.671 1.72828C15.6638 1.35625 15.3878 1.1492 15.0346 1.17523C14.7201 1.19846 14.5465 1.40598 14.5433 1.77731C14.5393 2.2526 14.5423 2.72797 14.5423 3.20333ZM33.2775 3.22843C33.2775 2.75237 33.2813 2.27615 33.2764 1.80016C33.2722 1.39962 33.0696 1.17786 32.719 1.17492C32.3719 1.17205 32.1419 1.39862 32.1385 1.7856C32.1303 2.73773 32.1301 3.69 32.1387 4.64213C32.1421 5.01269 32.4041 5.27714 32.7229 5.26993C33.0408 5.26281 33.2721 4.99666 33.2763 4.61812C33.2814 4.15491 33.2775 3.69163 33.2775 3.22843ZM6.85331 3.22579C6.85331 2.76259 6.85598 2.29931 6.85255 1.83603C6.84935 1.40443 6.65245 1.17678 6.28987 1.17492C5.92668 1.17306 5.71491 1.40357 5.7127 1.82727C5.70782 2.75384 5.70751 3.6804 5.713 4.60689C5.71537 5.00495 5.96818 5.28 6.29948 5.26993C6.61874 5.26017 6.84752 4.99588 6.85202 4.61564C6.85743 4.15243 6.85331 3.68907 6.85331 3.22579ZM37.8465 8.81561C37.8465 7.46713 37.8482 6.1542 37.8456 4.84135C37.8447 4.34469 37.6185 4.11835 37.1226 4.11618C36.3232 4.1127 35.5237 4.11402 34.7244 4.1168C34.629 4.11711 34.5337 4.13911 34.4452 4.15019C34.3266 5.69983 33.7938 6.44653 32.7544 6.41222C32.3782 6.39983 31.965 6.21648 31.6472 5.99487C31.0254 5.56126 31.0066 4.84569 31.0116 4.13648H25.6347C25.6225 4.37164 25.6135 4.60007 25.5981 4.82803C25.5384 5.71633 24.7756 6.43941 23.9075 6.43298C23.0092 6.42632 22.2481 5.65862 22.228 4.73632C22.2236 4.53647 22.2274 4.33648 22.2274 4.14128H16.8265C16.8265 4.32044 16.8313 4.47381 16.8256 4.62679C16.7895 5.61431 16.1315 6.36505 15.1847 6.42221C14.5157 6.46257 13.6736 6.06675 13.4436 5.05692C13.377 4.76444 13.3954 4.45204 13.3746 4.14577H8.01537C7.89987 5.68387 7.41699 6.38116 6.35715 6.41059C5.99503 6.42066 5.58255 6.25622 5.26971 6.05103C4.60168 5.61284 4.53623 4.87598 4.56194 4.11518C3.65872 4.11518 2.79799 4.11401 1.93727 4.11556C1.38549 4.11665 1.14855 4.35088 1.14649 4.90626C1.14298 5.85994 1.1455 6.81353 1.1455 7.76721C1.14542 8.1112 1.1455 8.45512 1.1455 8.81561H37.8465ZM37.8413 10.0296H1.1455V10.4097C1.1455 17.2656 1.14519 24.1215 1.14596 30.9774C1.14596 31.6079 1.34041 31.8015 1.96267 31.8015C13.6118 31.8016 25.2609 31.8016 36.9101 31.8016C37.6945 31.8016 37.8412 31.654 37.8412 30.863C37.8414 24.0716 37.8413 17.2801 37.8413 10.4886V10.0296ZM38.9876 31.4135C38.7884 32.1461 38.415 32.7217 37.6382 32.9122C37.4571 32.9566 37.2636 32.9627 37.0758 32.9627C25.3509 32.965 13.6259 32.9589 1.90103 32.9766C1.02611 32.9779 0.0354733 32.4148 0.00106862 31.0759C-0.000533365 31.0114 0.000612329 30.947 0.000612329 30.8826C0.000612329 22.2742 0.000839192 13.666 5.42114e-08 5.0577C-7.6231e-05 4.53191 0.0803288 4.03214 0.425214 3.61371C0.788942 3.17243 1.26145 2.95972 1.82383 2.95724C2.72255 2.95314 3.62134 2.95616 4.56964 2.95616C4.56964 2.52177 4.56003 2.11418 4.57162 1.70721C4.59558 0.871743 5.2157 0.133249 5.97535 0.0200045C6.81395 -0.104937 7.59938 0.356951 7.85959 1.16694C7.94793 1.44192 7.96105 1.74579 7.98066 2.03843C8.00026 2.33014 7.98501 2.62417 7.98501 2.93602H13.3891C13.3891 2.5155 13.3815 2.10713 13.3906 1.69924C13.41 0.827979 14.0271 0.108697 14.8231 0.0179148C15.7109 -0.0832464 16.5209 0.417678 16.7061 1.27096C16.8051 1.72751 16.751 2.21821 16.768 2.69342C16.7705 2.76786 16.7832 2.84191 16.7933 2.93486H22.1358C22.1673 2.41542 22.1653 1.90164 22.2362 1.39839C22.3604 0.517136 23.1482 -0.0506369 24.0911 0.0158228C24.8759 0.0712059 25.5704 0.822402 25.5857 1.64184C25.5935 2.06414 25.5871 2.48668 25.5871 2.93215H30.9932C30.9932 2.58258 30.9928 2.22781 30.9932 1.87297C30.9947 0.790023 31.7052 0.0144273 32.6971 0.0126458C33.6985 0.0108642 34.4153 0.778017 34.4176 1.85462C34.4184 2.20163 34.4178 2.54865 34.4178 2.95608H34.8351C35.6092 2.95608 36.3833 2.9536 37.1572 2.95678C38.0521 2.96042 38.7261 3.51619 38.9203 4.40146C38.9337 4.46266 38.9647 4.51982 38.9876 4.57885V31.4135Z" fill="url(#paint0_linear_338_256)"/>
<path d="M15.927 28.1407H23.0483V23.1683H15.927V28.1407ZM19.4988 21.9788C20.8174 21.9787 22.1359 21.9783 23.4545 21.979C24.0227 21.9793 24.214 22.1665 24.2143 22.7281C24.2155 24.6722 24.2155 26.6164 24.2143 28.5606C24.214 29.0926 24.0078 29.3206 23.4849 29.3216C20.8225 29.3271 18.16 29.3273 15.4976 29.3214C14.981 29.3201 14.7739 29.0856 14.7735 28.5506C14.7722 26.6064 14.7721 24.6622 14.7736 22.718C14.774 22.1755 14.9693 21.9796 15.5052 21.9792C16.8363 21.9779 18.1676 21.9788 19.4988 21.9788Z" fill="url(#paint1_linear_338_256)"/>
<path d="M4.21398 28.1344H11.3359V23.1573H4.21398V28.1344ZM7.78298 21.9788C9.11538 21.9788 10.4479 21.9779 11.7803 21.9792C12.3032 21.9797 12.4918 22.167 12.4922 22.6925C12.4939 24.6642 12.494 26.636 12.4921 28.6077C12.4916 29.0977 12.292 29.3196 11.8018 29.3209C9.12423 29.3276 6.44662 29.3275 3.76908 29.3207C3.28993 29.3194 3.05078 29.064 3.04925 28.5678C3.0433 26.609 3.04223 24.65 3.05009 22.6913C3.05208 22.1839 3.2791 21.9798 3.78563 21.9793C5.11811 21.9779 6.45051 21.9788 7.78298 21.9788Z" fill="url(#paint2_linear_338_256)"/>
<path d="M27.6715 28.1331H34.7775V23.1575H27.6715V28.1331ZM31.2109 21.9788C32.5435 21.9788 33.876 21.9777 35.2087 21.9793C35.7124 21.98 35.9368 22.1917 35.9381 22.6965C35.9431 24.6555 35.9423 26.6146 35.9387 28.5737C35.9378 29.0656 35.7025 29.3197 35.2181 29.3209C32.5403 29.3274 29.8624 29.3278 27.1846 29.3207C26.6987 29.3193 26.4973 29.0916 26.4969 28.6032C26.4953 26.6312 26.4953 24.6593 26.4967 22.6873C26.4971 22.1667 26.6879 21.9796 27.2131 21.9792C28.5458 21.978 29.8783 21.9788 31.2109 21.9788Z" fill="url(#paint3_linear_338_256)"/>
<path d="M27.6605 18.6835H34.7706V13.7079H27.6605V18.6835ZM31.2219 12.5373C32.5537 12.5373 33.8855 12.5359 35.2173 12.538C35.7232 12.5389 35.9373 12.7459 35.9384 13.2569C35.9427 15.2148 35.9427 17.1728 35.9383 19.1306C35.9372 19.6241 35.7299 19.8286 35.2411 19.8291C32.5521 19.8316 29.8631 19.8317 27.1741 19.8291C26.6668 19.8286 26.497 19.6498 26.4967 19.1328C26.4953 17.1749 26.4955 15.217 26.4966 13.259C26.4969 12.7043 26.665 12.5383 27.2265 12.5377C28.5583 12.5363 29.89 12.5373 31.2219 12.5373Z" fill="url(#paint4_linear_338_256)"/>
<path d="M11.3437 13.7195H4.21801V18.688H11.3437V13.7195ZM7.81913 12.5373C9.15077 12.5373 10.4824 12.5357 11.814 12.5381C12.3122 12.539 12.4918 12.7243 12.4923 13.2364C12.494 15.207 12.494 17.1775 12.4922 19.1481C12.4918 19.6481 12.3247 19.8281 11.8409 19.8286C9.13955 19.8318 6.43829 19.8316 3.73696 19.8288C3.27436 19.8283 3.05298 19.6243 3.05092 19.154C3.042 17.1706 3.04139 15.1871 3.05146 13.2037C3.0539 12.7367 3.28153 12.5391 3.74809 12.5383C5.10513 12.5358 6.46209 12.5374 7.81913 12.5373Z" fill="url(#paint5_linear_338_256)"/>
<path d="M23.0495 13.721H15.9401V18.6993H23.0495V13.721ZM19.4928 12.5375C20.8372 12.5374 22.1815 12.5358 23.5259 12.5383C24.0136 12.5391 24.2134 12.742 24.2139 13.2383C24.216 15.209 24.216 17.1796 24.2138 19.1502C24.2133 19.6318 24.0243 19.8283 23.5485 19.8288C20.8471 19.8318 18.1457 19.8318 15.4443 19.8288C14.9736 19.8284 14.7749 19.6253 14.7743 19.1512C14.7715 17.1677 14.7712 15.1842 14.7746 13.2007C14.7754 12.7499 14.9824 12.54 15.4217 12.5388C16.7788 12.5353 18.1358 12.5376 19.4928 12.5375Z" fill="url(#paint6_linear_338_256)"/>
<path d="M18.9701 25.8962C19.5233 25.3265 20.0093 24.8215 20.5005 24.3215C20.8172 23.9992 21.1934 23.9608 21.4296 24.2166C21.6549 24.4606 21.6078 24.8216 21.3034 25.1325C20.7056 25.7429 20.1068 26.3524 19.5051 26.9587C19.1157 27.351 18.8648 27.3485 18.4759 26.9553C18.189 26.6652 17.9013 26.3758 17.6219 26.0784C17.3756 25.8161 17.3589 25.4826 17.5663 25.2527C17.7916 25.0031 18.1248 25.0002 18.4077 25.2521C18.512 25.3451 18.6098 25.4467 18.7024 25.5519C18.7868 25.6476 18.8601 25.7534 18.9701 25.8962Z" fill="url(#paint7_linear_338_256)"/>
<path d="M7.78105 26.39C7.55144 26.6519 7.38864 26.8685 7.1948 27.0513C6.91674 27.3133 6.57331 27.3008 6.35322 27.0498C6.15282 26.8214 6.17693 26.4822 6.42997 26.2246C6.60817 26.0431 6.80544 25.8809 7.10349 25.6114C6.84107 25.3997 6.61984 25.25 6.43386 25.0641C6.17289 24.8032 6.16434 24.4264 6.38343 24.2042C6.60245 23.9819 6.97449 23.9946 7.23027 24.2562C7.40749 24.4374 7.55784 24.6456 7.81416 24.9553C8.04668 24.6605 8.19681 24.4374 8.37951 24.2466C8.61889 23.9966 8.97621 23.9852 9.19477 24.1903C9.43377 24.4146 9.43965 24.7667 9.18005 25.0449C8.99818 25.2398 8.78314 25.4029 8.52926 25.6278C8.79305 25.8735 9.00726 26.0514 9.19561 26.254C9.43499 26.5115 9.43522 26.8155 9.22346 27.0476C8.9991 27.2935 8.68374 27.3087 8.41247 27.0781C8.30605 26.9877 8.20993 26.8838 8.11488 26.7806C8.01975 26.6773 7.93179 26.5672 7.78105 26.39Z" fill="url(#paint8_linear_338_256)"/>
<path d="M30.7255 25.857C31.2552 25.3115 31.7499 24.7965 32.2511 24.2881C32.5339 24.0013 32.8903 23.9714 33.1222 24.2006C33.3594 24.4351 33.3438 24.7937 33.0612 25.0856C32.4402 25.7271 31.8141 26.3639 31.1824 26.9946C30.84 27.3366 30.5684 27.3376 30.229 27.0046C29.9197 26.701 29.6192 26.3878 29.3237 26.0702C29.0801 25.8084 29.0693 25.4694 29.281 25.2411C29.5041 25.0006 29.8389 25.0069 30.1233 25.2628C30.2274 25.3564 30.3206 25.4622 30.4202 25.561C30.5096 25.6498 30.6011 25.7366 30.7255 25.857Z" fill="url(#paint9_linear_338_256)"/>
<path d="M30.6681 16.4568C31.2372 15.8746 31.7265 15.3702 32.2202 14.8702C32.5445 14.5417 32.8641 14.5019 33.118 14.749C33.374 14.9981 33.3374 15.3561 33.0101 15.6914C32.4116 16.3046 31.811 16.9159 31.2059 17.5225C30.829 17.9004 30.569 17.8989 30.1997 17.5265C29.9025 17.2268 29.606 16.9262 29.3187 16.617C29.0775 16.3576 29.0719 16.0099 29.2887 15.7863C29.5015 15.5669 29.8546 15.5616 30.1063 15.8049C30.2978 15.9901 30.4573 16.2092 30.6681 16.4568Z" fill="url(#paint10_linear_338_256)"/>
<path d="M7.23455 16.4655C7.7565 15.9306 8.20978 15.4655 8.66376 15.0011C8.75293 14.9099 8.83799 14.8124 8.93693 14.7334C9.18898 14.5321 9.52547 14.5522 9.72229 14.7801C9.93757 15.0293 9.94893 15.3065 9.72542 15.54C9.04541 16.2501 8.35427 16.9495 7.65588 17.6411C7.42351 17.8712 7.13759 17.8649 6.90401 17.6455C6.54181 17.3052 6.19395 16.9472 5.86165 16.5767C5.63012 16.3186 5.65484 16.0097 5.88087 15.7837C6.09409 15.5705 6.4183 15.5692 6.66493 15.7871C6.7699 15.8798 6.87136 15.9785 6.96168 16.0856C7.05254 16.1932 7.12752 16.3147 7.23455 16.4655Z" fill="url(#paint11_linear_338_256)"/>
<path d="M19.5018 15.464C19.7456 15.1788 19.9052 14.9592 20.0975 14.775C20.3547 14.5285 20.6962 14.5367 20.9133 14.7623C21.1526 15.0112 21.1546 15.2991 20.8898 15.5798C20.707 15.7738 20.4955 15.9399 20.2145 16.1925C20.4188 16.3616 20.5735 16.4707 20.7062 16.6028C21.1436 17.038 21.1998 17.3265 20.9197 17.62C20.6411 17.9119 20.3317 17.8547 19.9165 17.429C19.7844 17.2935 19.6607 17.1492 19.4929 16.9647C19.2936 17.1827 19.1373 17.366 18.9681 17.5358C18.6447 17.8605 18.3286 17.8865 18.0735 17.6205C17.8159 17.3517 17.8455 17.0516 18.1771 16.7127C18.3375 16.5487 18.5145 16.4015 18.7889 16.1509C18.5284 15.9365 18.2974 15.7766 18.1035 15.5791C17.8372 15.3081 17.8424 15.0118 18.0797 14.7642C18.2984 14.5361 18.6364 14.5277 18.8944 14.7739C19.0869 14.9576 19.2493 15.174 19.5018 15.464Z" fill="url(#paint12_linear_338_256)"/>
</g>
<defs>
<linearGradient id="paint0_linear_338_256" x1="38.9876" y1="-0.000212685" x2="-0.486302" y2="32.3838" gradientUnits="userSpaceOnUse">
<stop stop-color="#1BA6DD"/>
<stop offset="0.43" stop-color="#1F7EB0"/>
<stop offset="1" stop-color="#28244B"/>
</linearGradient>
<linearGradient id="paint1_linear_338_256" x1="38.9876" y1="-7.83527e-07" x2="-0.486262" y2="32.384" gradientUnits="userSpaceOnUse">
<stop stop-color="#1BA6DD"/>
<stop offset="0.43" stop-color="#1F7EB0"/>
<stop offset="1" stop-color="#28244B"/>
</linearGradient>
<linearGradient id="paint2_linear_338_256" x1="38.9876" y1="5.92994e-06" x2="-0.486244" y2="32.384" gradientUnits="userSpaceOnUse">
<stop stop-color="#1BA6DD"/>
<stop offset="0.43" stop-color="#1F7EB0"/>
<stop offset="1" stop-color="#28244B"/>
</linearGradient>
<linearGradient id="paint3_linear_338_256" x1="38.9876" y1="3.39635e-06" x2="-0.486244" y2="32.384" gradientUnits="userSpaceOnUse">
<stop stop-color="#1BA6DD"/>
<stop offset="0.43" stop-color="#1F7EB0"/>
<stop offset="1" stop-color="#28244B"/>
</linearGradient>
<linearGradient id="paint4_linear_338_256" x1="38.9876" y1="-2.78275e-06" x2="-0.48627" y2="32.384" gradientUnits="userSpaceOnUse">
<stop stop-color="#1BA6DD"/>
<stop offset="0.43" stop-color="#1F7EB0"/>
<stop offset="1" stop-color="#28244B"/>
</linearGradient>
<linearGradient id="paint5_linear_338_256" x1="38.9876" y1="-7.80008e-06" x2="-0.486254" y2="32.384" gradientUnits="userSpaceOnUse">
<stop stop-color="#1BA6DD"/>
<stop offset="0.43" stop-color="#1F7EB0"/>
<stop offset="1" stop-color="#28244B"/>
</linearGradient>
<linearGradient id="paint6_linear_338_256" x1="38.9876" y1="-6.18611e-06" x2="-0.486248" y2="32.384" gradientUnits="userSpaceOnUse">
<stop stop-color="#1BA6DD"/>
<stop offset="0.43" stop-color="#1F7EB0"/>
<stop offset="1" stop-color="#28244B"/>
</linearGradient>
<linearGradient id="paint7_linear_338_256" x1="38.9876" y1="5.78284e-06" x2="-0.486262" y2="32.384" gradientUnits="userSpaceOnUse">
<stop stop-color="#1BA6DD"/>
<stop offset="0.43" stop-color="#1F7EB0"/>
<stop offset="1" stop-color="#28244B"/>
</linearGradient>
<linearGradient id="paint8_linear_338_256" x1="38.9876" y1="1.07333e-05" x2="-0.486264" y2="32.384" gradientUnits="userSpaceOnUse">
<stop stop-color="#1BA6DD"/>
<stop offset="0.43" stop-color="#1F7EB0"/>
<stop offset="1" stop-color="#28244B"/>
</linearGradient>
<linearGradient id="paint9_linear_338_256" x1="38.9876" y1="7.19645e-06" x2="-0.486246" y2="32.384" gradientUnits="userSpaceOnUse">
<stop stop-color="#1BA6DD"/>
<stop offset="0.43" stop-color="#1F7EB0"/>
<stop offset="1" stop-color="#28244B"/>
</linearGradient>
<linearGradient id="paint10_linear_338_256" x1="38.9876" y1="2.25577e-06" x2="-0.486263" y2="32.384" gradientUnits="userSpaceOnUse">
<stop stop-color="#1BA6DD"/>
<stop offset="0.43" stop-color="#1F7EB0"/>
<stop offset="1" stop-color="#28244B"/>
</linearGradient>
<linearGradient id="paint11_linear_338_256" x1="38.9876" y1="2.62199e-06" x2="-0.486258" y2="32.384" gradientUnits="userSpaceOnUse">
<stop stop-color="#1BA6DD"/>
<stop offset="0.43" stop-color="#1F7EB0"/>
<stop offset="1" stop-color="#28244B"/>
</linearGradient>
<linearGradient id="paint12_linear_338_256" x1="38.9876" y1="3.69676e-06" x2="-0.486253" y2="32.384" gradientUnits="userSpaceOnUse">
<stop stop-color="#1BA6DD"/>
<stop offset="0.43" stop-color="#1F7EB0"/>
<stop offset="1" stop-color="#28244B"/>
</linearGradient>
<clipPath id="clip0_338_256">
<rect width="39" height="33" fill="white"/>
</clipPath>
</defs>
</svg>
