<svg width="34" height="36" viewBox="0 0 34 36" fill="none" xmlns="http://www.w3.org/2000/svg">
<path fill-rule="evenodd" clip-rule="evenodd" d="M32.98 24.2809C33.6067 24.5898 34.005 25.2443 33.9997 25.9567C34.0125 26.6667 33.6313 27.3259 33.0173 27.6555L21.4375 34.4696H21.4002L21.2283 34.5576C19.7006 35.3381 18.3932 36 16.899 36C16.2274 35.989 15.5628 35.8596 14.9341 35.6174L6.79845 32.2543V33.2491C6.79845 33.6689 6.46117 34.0143 6.05137 34.0143H0.747082C0.337208 34.0143 0 33.6689 0 33.2491V20.2024C0 19.7826 0.337208 19.4372 0.747082 19.4372H6.05137C6.46117 19.4372 6.79845 19.7826 6.79845 20.2024V21.4305H9.70835C9.67844 21.1589 9.6448 20.8873 9.6448 20.6041C9.47299 15.1903 13.638 11.2648 15.4422 9.58138L15.6215 9.40921C15.8381 9.19878 16.0436 8.99986 16.2117 8.81618C15.6557 8.42715 15.3224 7.78032 15.3226 7.09066V7.0524C15.3251 6.19237 15.8439 5.41723 16.6263 5.10495C16.1983 3.87681 15.8978 2.60593 15.7298 1.31338C15.6716 0.870999 15.8704 0.432353 16.2378 0.19233C16.6073 -0.0555388 17.0849 -0.064506 17.463 0.169389C18.0385 0.496468 18.6541 0.743515 19.2934 0.903954C19.9057 1.06716 20.5488 1.06716 21.1611 0.903954C21.7963 0.74359 22.4079 0.497888 22.9802 0.1732C23.1605 0.0607361 23.3676 0.00117882 23.5788 0.00117882C24.2099 0.00117882 24.7292 0.533159 24.7292 1.17962C24.7292 1.22685 24.7265 1.27408 24.7209 1.321C24.5554 2.6087 24.2561 3.87464 23.8282 5.09732C24.6084 5.4117 25.1252 6.18594 25.1281 7.0447V7.08296C25.1293 7.69924 24.8637 8.28539 24.4034 8.68227C24.6238 8.92334 24.8592 9.16433 25.1169 9.40921L25.3037 9.58138C27.0855 11.2648 31.2728 15.1941 31.0973 20.6079C31.074 21.637 30.8689 22.6533 30.4921 23.6075C31.356 23.6659 32.2008 23.8946 32.98 24.2809ZM18.8975 2.3961C18.352 2.24911 17.8187 2.05848 17.3024 1.82608C17.4993 2.89251 17.7817 3.94055 18.1466 4.95953H22.2929C22.6605 3.94115 22.9441 2.89296 23.1409 1.82608C22.6261 2.05916 22.0939 2.24978 21.5496 2.3961C20.6808 2.63336 19.7662 2.63336 18.8975 2.3961ZM16.4508 10.7292C14.8146 12.2596 10.9896 15.8445 11.139 20.5544C11.1505 20.8775 11.1816 21.1995 11.2324 21.5185C13.142 21.7877 14.9098 22.7039 16.2528 24.1202H20.5858C21.8124 24.1358 22.8664 25.0463 23.0886 26.2819L27.1154 24.2962C27.6414 24.0332 28.1972 23.8379 28.7701 23.7147C29.301 22.7494 29.585 21.6622 29.5956 20.5544C29.7488 15.8445 25.92 12.2481 24.2876 10.7177L24.0971 10.5417C23.6508 10.1236 23.2327 9.67494 22.8458 9.19878H17.8963C17.5077 9.68189 17.0858 10.1358 16.6337 10.557L16.4508 10.7292ZM22.2634 16.2421C22.3882 16.0426 22.5604 15.8816 22.78 15.7589C22.9997 15.6362 23.2567 15.5748 23.5513 15.5748C23.8957 15.5748 24.2077 15.6643 24.4872 15.8433C24.7667 16.0222 24.9876 16.2779 25.1498 16.6102C25.3121 16.9425 25.3932 17.3285 25.3932 17.7682C25.3932 18.2079 25.3121 18.5952 25.1498 18.9301C24.9876 19.2649 24.7667 19.5232 24.4872 19.7047C24.2077 19.8861 23.8957 19.9769 23.5513 19.9769C23.2618 19.9769 23.0059 19.9156 22.7838 19.7929C22.5617 19.6702 22.3882 19.5117 22.2634 19.3174V21.9555H20.983V15.6362H22.2634V16.2421ZM24.0903 17.7682C24.0903 17.441 24.0018 17.1841 23.8246 16.9975C23.6473 16.8108 23.429 16.7176 23.1694 16.7176C22.9149 16.7176 22.699 16.8121 22.5218 17.0013C22.3445 17.1904 22.2559 17.4487 22.2559 17.7759C22.2559 18.1031 22.3445 18.3613 22.5218 18.5505C22.699 18.7396 22.9149 18.8342 23.1694 18.8342C23.4239 18.8342 23.6411 18.7383 23.8208 18.5467C24.0005 18.3549 24.0903 18.0955 24.0903 17.7682ZM18.7818 19.9156L17.6886 17.8832H17.3816V19.9156H16.1012V14.5319H18.2501C18.6644 14.5319 19.0176 14.606 19.3096 14.7543C19.6016 14.9025 19.82 15.1058 19.9648 15.364C20.1095 15.6221 20.1819 15.9098 20.1819 16.2268C20.1819 16.5846 20.0833 16.9042 19.8861 17.1854C19.689 17.4666 19.3982 17.6659 19.0138 17.7835L20.2268 19.9156H18.7818ZM17.3816 16.9553H18.1753C18.4099 16.9553 18.5858 16.8965 18.7031 16.7789C18.8204 16.6613 18.8791 16.4952 18.8791 16.2804C18.8791 16.0759 18.8204 15.9149 18.7031 15.7972C18.5858 15.6797 18.4099 15.6209 18.1753 15.6209H17.3816V16.9553ZM1.50912 32.4992L5.31924 32.4839V20.9676H1.50912V32.4992ZM17.3734 7.66837H23.0851C23.3862 7.66837 23.6341 7.41445 23.6341 7.10598C23.6341 7.10082 23.6341 7.09574 23.6339 7.09066V7.0524C23.6339 6.74385 23.3861 6.48993 23.0848 6.48993H17.3733C17.07 6.48993 16.8204 6.74557 16.8204 7.05621C16.8204 7.06002 16.8204 7.06383 16.8205 7.06772V7.10598C16.8226 7.41513 17.0715 7.66837 17.3734 7.66837ZM32.315 26.2743C32.4327 26.2053 32.5013 26.0722 32.4906 25.9338C32.4922 25.8123 32.4231 25.7008 32.315 25.6506C31.3686 25.1743 30.3032 25.0022 29.2594 25.1571C28.7393 25.2448 28.2353 25.4138 27.7653 25.6583L22.5357 28.237C22.4909 28.2906 22.4423 28.3442 22.3938 28.3939C21.9371 28.8636 21.3152 29.1269 20.668 29.1247H12.3193C11.9095 29.1247 11.5723 28.7792 11.5723 28.3595C11.5723 27.9397 11.9095 27.5943 12.3193 27.5943H20.6755C20.9674 27.5864 21.2413 27.4461 21.4226 27.2117C21.445 27.181 21.3267 27.3545 21.445 27.181C21.5632 27.0076 21.6236 26.7995 21.6168 26.588C21.534 26.071 21.0973 25.6852 20.5858 25.6774H15.9053C15.6928 25.677 15.4901 25.5837 15.3488 25.4211C13.9977 23.865 12.059 22.9732 10.0259 22.9724H6.79845V30.6245L15.487 34.1865C17.3061 34.8446 18.5426 34.2133 20.5858 33.1688L20.7353 33.0922L32.315 26.2743Z" fill="url(#paint0_linear_964_3743)"/>
<defs>
<linearGradient id="paint0_linear_964_3743" x1="34" y1="-9.45659e-06" x2="-0.847157" y2="35.3727" gradientUnits="userSpaceOnUse">
<stop stop-color="#1BA6DD"/>
<stop offset="0.43" stop-color="#1F7EB0"/>
<stop offset="1" stop-color="#28244B"/>
</linearGradient>
</defs>
</svg>
