<svg width="39" height="31" viewBox="0 0 39 31" fill="none" xmlns="http://www.w3.org/2000/svg">
<path d="M4.77214 14.7449C4.84634 14.9414 4.88522 15.0544 4.93094 15.1644C5.81482 17.2901 7.11294 19.1339 8.61578 20.8308C11.4469 24.0276 14.7528 26.6259 18.29 28.9362C19.0716 29.4465 19.7645 29.4563 20.5482 28.9548C23.0579 27.3491 25.4592 25.5933 27.6718 23.5762C29.8002 21.6358 31.7418 19.5229 33.1972 16.9828C33.3117 16.7829 33.4136 16.5754 33.5527 16.3122H32.8937C30.5175 16.3122 28.1413 16.3138 25.7652 16.3115C24.7267 16.3105 24.1633 15.9114 23.8011 14.9196C23.3623 13.7178 22.9308 12.5131 22.4933 11.3107C22.4279 11.1309 22.3468 10.9572 22.2458 10.7154C22.0985 10.9553 21.9969 11.1139 21.9017 11.2765C20.3818 13.8718 18.8658 16.4695 17.3421 19.0624C16.7397 20.0874 15.7847 20.1278 15.0987 19.1662C14.1259 17.8027 13.1618 16.4327 12.1798 15.0765C12.0731 14.9292 11.8736 14.7603 11.7159 14.7589C9.42598 14.7385 7.1359 14.7449 4.77214 14.7449ZM16.1559 17.9405C16.2808 17.7485 16.3775 17.6121 16.4618 17.4681C18.043 14.7679 19.6243 12.0678 21.2009 9.36487C21.4986 8.85453 21.8998 8.57883 22.499 8.65264C23.0602 8.72182 23.3486 9.08235 23.5314 9.59321C24.0906 11.1562 24.6706 12.7115 25.217 14.2792C25.3299 14.6031 25.4953 14.7106 25.8094 14.7099C28.5083 14.7034 31.2072 14.712 33.9059 14.6919C34.0679 14.6907 34.3203 14.5178 34.375 14.3656C34.7938 13.1999 35.0459 11.9844 34.9967 10.7434C34.8807 7.81454 33.7399 5.3777 31.4519 3.59609C28.7946 1.52682 25.2003 0.845562 22.1166 3.08817C21.6465 3.43 21.1796 3.77814 20.7278 4.14496C19.8403 4.86537 19.2375 4.87283 18.369 4.14695C18.1715 3.98192 17.9787 3.81047 17.7755 3.65341C16.4903 2.65983 15.1212 1.79674 13.4861 1.66624C11.1777 1.48199 9.1041 2.21427 7.31358 3.7163C5.2173 5.47471 4.11686 7.78377 3.99756 10.5511C3.96041 11.4157 4.13696 12.2899 4.21626 13.1672C6.83148 13.1672 9.30882 13.1755 11.786 13.1616C12.4154 13.158 12.8984 13.4047 13.2797 13.8963C13.4382 14.1006 13.5823 14.3166 13.7323 14.5279C14.5296 15.6503 15.3267 16.7729 16.1559 17.9405ZM38.999 15.6854C38.7271 16.1667 38.3291 16.3494 37.7844 16.3212C37.0736 16.2844 36.3589 16.2959 35.6474 16.3247C35.4858 16.3312 35.2502 16.4531 35.1836 16.5909C33.504 20.0676 30.9582 22.8018 28.1411 25.2987C26.0315 27.1685 23.745 28.7895 21.3853 30.3076C20.0527 31.1649 18.7909 31.1583 17.4531 30.2865C13.9882 28.0289 10.7326 25.5094 7.90957 22.4326C5.91871 20.2627 4.22667 17.8878 3.20011 15.0611C3.14909 14.9208 2.9259 14.7668 2.77578 14.7586C2.14968 14.7247 1.52083 14.7488 0.893096 14.7426C0.36895 14.7374 -0.00364699 14.3999 2.69304e-05 13.9483C0.00370085 13.4909 0.366297 13.1729 0.901668 13.1683C1.45919 13.1636 2.01681 13.1672 2.62872 13.1672C1.90598 8.23805 3.39953 4.25089 7.53381 1.63863C11.784 -1.04692 15.8283 -0.331226 19.5057 3.05174C19.9666 2.70056 20.3924 2.36198 20.8321 2.04366C22.4835 0.847662 24.2742 0.000634415 26.3362 0.0851482C31.5648 0.299425 35.532 4.20879 36.3694 8.9592C36.7099 10.8913 36.5031 12.7568 35.9305 14.7067C36.6297 14.7067 37.283 14.7291 37.9339 14.6995C38.4558 14.6758 38.8152 14.8594 38.999 15.3711V15.6854Z" fill="url(#paint0_linear_340_422)"/>
<defs>
<linearGradient id="paint0_linear_340_422" x1="38.999" y1="5.76025e-06" x2="-0.81818" y2="29.8542" gradientUnits="userSpaceOnUse">
<stop stop-color="#1BA6DD"/>
<stop offset="0.43" stop-color="#1F7EB0"/>
<stop offset="1" stop-color="#28244B"/>
</linearGradient>
</defs>
</svg>
