<svg width="11" height="10" viewBox="0 0 11 10" fill="none" xmlns="http://www.w3.org/2000/svg">
<path d="M10.4358 3.54563C10.0012 3.01444 9.36983 2.70895 8.70679 2.70911H6.87883L7.03281 1.71707C7.04522 1.63744 7.05145 1.55688 7.05145 1.47615C7.05145 0.666364 6.42321 0 5.65975 0C5.13036 0 4.64496 0.320389 4.41114 0.824167L3.53405 2.70911H2.29127C1.03489 2.71071 0.00150364 3.8068 0 5.13942V7.5697C0.00150364 8.90231 1.03489 9.99841 2.29127 10H8.38602C9.52075 9.99508 10.4913 9.10099 10.6548 7.90995L10.9779 5.47965C11.0699 4.78248 10.8719 4.07622 10.4358 3.54563ZM0.916512 7.5697V5.13942C0.916512 4.33947 1.53709 3.68124 2.29127 3.68124H3.20776V9.02787H2.29127C1.53709 9.02787 0.916512 8.36964 0.916512 7.5697ZM10.0683 5.34306L9.74473 7.77336C9.64742 8.48741 9.06622 9.02405 8.38602 9.02787H4.12427V3.55194C4.16745 3.51202 4.20321 3.46388 4.22968 3.41002L5.23278 1.25433C5.31909 1.08921 5.48363 0.986434 5.66162 0.986434C5.7984 0.986434 5.92911 1.04713 6.02189 1.15371C6.11299 1.26609 6.15219 1.41594 6.12867 1.562L5.88671 3.1174C5.88278 3.14312 5.8808 3.16912 5.8808 3.19516C5.8808 3.4618 6.08764 3.68119 6.33901 3.68124H8.70679C8.70685 3.68124 8.70692 3.68124 8.70698 3.68124C9.46114 3.68124 10.0817 4.33947 10.0817 5.13942C10.0817 5.20754 10.0772 5.2756 10.0683 5.34306Z" fill="white"/>
</svg>
