<svg width="11" height="10" viewBox="0 0 11 10" fill="none" xmlns="http://www.w3.org/2000/svg">
<path d="M10.4358 6.45437C10.0012 6.98556 9.36983 7.29105 8.70679 7.29089H6.87883L7.03281 8.28293C7.04522 8.36256 7.05145 8.44312 7.05145 8.52385C7.05145 9.33364 6.42321 10 5.65975 10C5.13036 10 4.64496 9.67961 4.41114 9.17583L3.53405 7.29089H2.29127C1.03489 7.28929 0.00150364 6.1932 0 4.86058V2.4303C0.00150364 1.09769 1.03489 0.00159454 2.29127 0H8.38602C9.52075 0.00492096 10.4913 0.899012 10.6548 2.09005L10.9779 4.52035C11.0699 5.21752 10.8719 5.92378 10.4358 6.45437ZM0.916512 2.4303V4.86058C0.916512 5.66053 1.53709 6.31876 2.29127 6.31876H3.20776V0.972126H2.29127C1.53709 0.972126 0.916512 1.63036 0.916512 2.4303ZM10.0683 4.65694L9.74473 2.22664C9.64742 1.51259 9.06622 0.975953 8.38602 0.972126H4.12427V6.44806C4.16745 6.48798 4.20321 6.53612 4.22968 6.58998L5.23278 8.74567C5.31909 8.91079 5.48363 9.01357 5.66162 9.01357C5.7984 9.01357 5.92911 8.95287 6.02189 8.84629C6.11299 8.73391 6.15219 8.58406 6.12867 8.438L5.88671 6.8826C5.88278 6.85688 5.8808 6.83088 5.8808 6.80484C5.8808 6.5382 6.08764 6.31881 6.33901 6.31876H8.70679C8.70685 6.31876 8.70692 6.31876 8.70698 6.31876C9.46114 6.31876 10.0817 5.66053 10.0817 4.86058C10.0817 4.79246 10.0772 4.7244 10.0683 4.65694Z" fill="white"/>
</svg>
