<svg width="43" height="36" viewBox="0 0 43 36" fill="none" xmlns="http://www.w3.org/2000/svg">
<path fill-rule="evenodd" clip-rule="evenodd" d="M11.2835 12.5803C11.2839 11.7984 11.2845 11.0167 11.2852 10.2348C11.2872 8.04284 12.8757 6.45847 15.0531 6.45411C16.1495 6.45199 17.2464 6.43763 18.3424 6.46306C18.6832 6.47095 18.8149 6.34004 18.9172 6.04151C20.0442 2.75421 22.3464 0.743575 25.7253 0.13391C29.8372 -0.608071 33.9375 1.78868 35.3434 5.95145C35.4723 6.33321 35.6155 6.47554 36.0234 6.46376C37.0798 6.43339 38.1377 6.45223 39.1951 6.45411C41.3875 6.45776 42.9915 8.014 42.9963 10.2029C43.01 16.3042 43.012 22.4057 42.9951 28.5071C42.9891 30.6611 41.3698 32.2342 39.2271 32.2356C35.1934 32.2383 31.1599 32.2363 27.1263 32.2364C26.9741 32.2364 26.8219 32.2364 26.6695 32.2364C26.6954 31.8091 26.6103 31.3648 26.4105 30.8923C26.3583 30.7692 26.3064 30.646 26.2546 30.5228H31.8266V20.2367H23.2303C23.8385 19.6526 24.44 19.0612 25.0368 18.4651C25.7358 18.4651 26.4347 18.4651 27.1337 18.4651C31.1661 18.4651 35.1984 18.4655 39.2307 18.4648C40.4902 18.4645 41.2445 17.7516 41.257 16.481C41.2777 14.363 41.2769 12.2446 41.2556 10.1266C41.2432 8.90443 40.4441 8.12019 39.2139 8.11901C31.1688 8.11112 23.1235 8.11159 15.0784 8.11842C13.8457 8.11948 13.0387 8.89148 13.0237 10.1136C13.0108 11.1806 13.0039 12.2478 13.0039 13.3149C12.431 13.0687 11.8574 12.8241 11.2835 12.5803ZM20.6136 6.39878H33.6937C32.7162 3.38448 29.9847 1.58785 26.4475 1.76502C23.4637 1.91452 21.1425 4.33094 20.6136 6.39878ZM37.8139 30.5714C38.2553 30.5714 38.6052 30.5553 38.9531 30.5743C40.1381 30.6392 41.3171 29.967 41.2804 28.288C41.2215 25.5849 41.2653 22.8796 41.2629 20.1752C41.2628 20.03 41.2377 19.8848 41.2375 19.8825C40.0928 20.0305 38.9878 20.1732 37.8139 20.3249C37.8139 20.4772 37.8141 20.687 37.8137 20.8969C37.8128 21.6611 37.8336 22.4263 37.8039 23.1895C37.7795 23.8167 37.4414 24.1385 36.9107 24.1228C36.4236 24.1082 36.1104 23.7592 36.076 23.1823C36.0654 23.0065 36.0736 22.8297 36.0736 22.6533C36.0735 21.8556 36.0736 21.0579 36.0736 20.2456H33.6485V30.5368H36.0736V29.9299C36.0737 29.146 36.061 28.3618 36.0783 27.5784C36.0916 26.9724 36.4363 26.5945 36.9337 26.5867C37.439 26.579 37.7615 26.9315 37.81 27.5573C37.8235 27.7327 37.8137 27.9099 37.8137 28.0862C37.814 28.8871 37.8139 29.6879 37.8139 30.5714ZM8.86424 21.1844C8.81621 21.1551 8.76818 21.1226 8.72015 21.0869C8.09141 20.6198 3.78067 17.3766 3.161 16.8976C2.11966 16.0927 2.05173 14.9042 2.9969 14.0004C3.37442 13.6392 3.75924 13.2817 4.17067 12.9609C5.14527 12.2011 6.19755 12.1253 7.32765 12.6129C9.67767 13.627 12.0438 14.6033 14.3875 15.6315C14.8044 15.8144 15.0174 15.7319 15.2978 15.4242C16.165 14.4729 17.0596 13.5464 17.9495 12.6161C19.0954 11.4182 20.4854 10.9141 22.095 11.3699C23.6816 11.8191 24.7148 12.8897 25.0614 14.5329C25.3743 16.0171 24.9643 17.3146 23.9039 18.3915C23.0006 19.3088 22.0877 20.2172 21.1545 21.1039C20.8645 21.3793 20.8114 21.5932 20.9713 21.9766C22.0426 24.5444 23.0597 27.1349 24.1438 29.6973C24.504 30.549 24.4181 31.2908 23.9195 32.0172C23.6127 32.4643 23.2843 32.8975 22.9493 33.324C21.9343 34.6158 20.3918 34.5935 19.3968 33.2752C18.4888 32.0722 17.588 30.8637 16.6806 29.6601C15.993 28.748 15.3002 27.8402 14.5835 26.896C13.5823 27.7686 12.6052 28.6036 11.6579 29.4711C11.5598 29.5609 11.574 29.8744 11.6463 30.0338C11.9682 30.7441 12.3401 31.4314 12.6759 32.1356C13.2581 33.3571 12.9131 34.5336 11.772 35.2685C10.0986 36.3458 9.78444 36.2903 8.56664 34.7189C8.09871 34.115 7.60888 33.5278 7.1526 32.9153C6.95295 32.647 6.77226 32.6163 6.449 32.7096C4.54878 33.2582 3.32757 32.0598 3.80539 30.1169C3.88261 29.8034 3.82128 29.6476 3.57054 29.4765C2.62561 28.8316 1.6914 28.1709 0.75671 27.5111C-0.191161 26.8418 -0.251315 25.9816 0.591904 25.1999C0.916455 24.8992 1.23406 24.5893 1.57627 24.3099C2.38382 23.6507 3.29037 23.5756 4.22753 23.9623C4.98517 24.2751 5.71408 24.6572 6.46854 24.9786C6.60827 25.0381 6.88362 25.0221 6.96967 24.9264C7.88199 23.9119 8.76853 22.8742 9.69415 21.8062C9.40362 21.5878 9.13016 21.3846 8.86424 21.1844ZM10.3425 33.9644C10.6667 33.7042 11.2455 33.6462 11.0401 33.1115C10.7384 32.3261 10.3202 31.5858 9.93901 30.8C9.41092 31.112 8.96936 31.3729 8.50013 31.6499C9.13311 32.4451 9.72806 33.1924 10.3425 33.9644ZM5.49077 31.0327C5.73786 30.9765 5.8424 30.9769 5.91997 30.9313C7.17721 30.19 8.5391 29.5774 9.66319 28.6694C12.0996 26.702 14.4388 24.6106 16.7705 22.5171C18.7426 20.7466 20.67 18.9243 22.5753 17.0813C23.7737 15.9223 23.517 14.1175 22.1155 13.3595C21.1532 12.8389 20.1026 13.0055 19.2898 13.9028C16.5921 16.881 13.9091 19.8729 11.2378 22.8748C9.22469 25.1373 7.13271 27.3451 5.82992 30.1394C5.71149 30.3933 5.62932 30.6644 5.49077 31.0327ZM9.46342 19.3139C9.49556 19.3336 9.5277 19.3549 9.55972 19.3776C10.0003 19.6912 10.4272 20.0243 10.9188 20.3925C11.8041 19.3767 12.6817 18.3696 13.6044 17.3111C11.927 16.5939 10.315 15.9046 8.70284 15.2154C8.04091 14.9326 7.36273 14.6823 6.72117 14.3587C6.09149 14.0411 5.56929 14.1532 5.07805 14.6034C4.81247 14.8469 4.5542 15.0986 4.25013 15.3868C4.82554 15.818 8.23833 18.3901 9.46342 19.3139ZM15.9873 25.6705C17.7279 27.9731 19.4328 30.2287 21.1987 32.5648C21.664 31.9423 22.0485 31.4577 22.3927 30.9457C22.4735 30.8257 22.4577 30.6029 22.4161 30.4461C22.345 30.1781 22.2204 29.9238 22.1147 29.6652C21.1866 27.3931 20.2576 25.1214 19.3027 22.7852C18.1905 23.7532 17.1197 24.685 15.9873 25.6705ZM2.22502 26.2725C3.10096 26.8831 3.9483 27.4737 4.84861 28.1013C5.12761 27.6164 5.38129 27.1758 5.66417 26.6841C5.06216 26.3974 4.51253 26.1323 3.96007 25.8736C3.02739 25.4367 3.01044 25.4418 2.22502 26.2725Z" fill="url(#paint0_linear_895_3890)"/>
<defs>
<linearGradient id="paint0_linear_895_3890" x1="43.0071" y1="8.92804e-07" x2="1.09578e-05" y2="36" gradientUnits="userSpaceOnUse">
<stop stop-color="#1BA6DD"/>
<stop offset="0.43" stop-color="#1F7EB0"/>
<stop offset="1" stop-color="#28244B"/>
</linearGradient>
</defs>
</svg>
