<svg width="13" height="11" viewBox="0 0 13 11" fill="none" xmlns="http://www.w3.org/2000/svg">
<path d="M9.75172 2.85311C9.51527 2.79919 9.31914 2.64571 9.21436 2.43172C8.34648 0.658091 6.47214 -0.287585 4.55263 0.0776938C2.86796 0.39787 1.50625 1.77265 1.16395 3.49842C1.06186 4.01169 1.0468 4.52881 1.11934 5.03659C1.16395 5.34851 1.08818 5.62689 0.911377 5.79961C0.324565 6.37451 0.000528977 7.1469 0 7.97429C0 9.69949 1.27035 11 2.95555 11H8.7248C10.9442 11 12.8148 9.22088 12.8937 7.03302C12.9658 5.04595 11.6444 3.28771 9.75172 2.85311ZM8.7248 10.4499H2.95555C1.55461 10.4499 0.537365 9.40848 0.537365 7.97483C0.53792 7.29873 0.803365 6.66772 1.28325 6.19735C1.58741 5.90028 1.72122 5.44864 1.65134 4.95737C1.58794 4.51287 1.60137 4.05901 1.69112 3.60845C1.98989 2.09999 3.17963 0.898507 4.65097 0.618481C4.8917 0.572812 5.13191 0.550815 5.36836 0.550815C6.78542 0.550815 8.08318 1.3485 8.73394 2.67817C8.91128 3.04072 9.2396 3.30037 9.63457 3.3906C11.2741 3.76743 12.4193 5.29021 12.3569 7.01265C12.2881 8.90787 10.6588 10.4499 8.7248 10.4499ZM8.20409 6.67927C8.30887 6.78654 8.30887 6.96095 8.20409 7.06822L6.74942 8.55742C6.61078 8.69881 6.43345 8.76702 6.25234 8.78409C6.22871 8.79123 6.20558 8.79894 6.17979 8.79894C6.154 8.79894 6.1309 8.79069 6.10724 8.78409C5.92616 8.76702 5.7483 8.69881 5.61018 8.55742L4.15552 7.06822C4.05073 6.96095 4.05073 6.78654 4.15552 6.67927C4.26031 6.57199 4.43064 6.57199 4.53543 6.67927L5.91165 8.08816V4.12338C5.91165 3.97154 6.03203 3.8483 6.18034 3.8483C6.32866 3.8483 6.44901 3.97154 6.44901 4.12338V8.08816L7.82524 6.67927C7.93002 6.57199 8.10038 6.57199 8.20517 6.67927H8.20409Z" fill="#28244B"/>
</svg>
