<svg width="35" height="36" viewBox="0 0 35 36" fill="none" xmlns="http://www.w3.org/2000/svg">
<path fill-rule="evenodd" clip-rule="evenodd" d="M34.9547 17.756C35.0152 22.4474 33.256 26.8145 30.0015 30.0909C26.8067 33.307 22.5287 35.0573 17.9564 35.0573H17.9561C14.6418 35.0573 11.4141 34.1457 8.5913 32.3771L1.197 35.5447C1.08862 35.5911 0.974305 35.6241 0.861022 35.6241C0.643753 35.6241 0.429841 35.5413 0.266544 35.3844C0.0180274 35.1457 -0.0656438 34.7811 0.0534928 34.4568L2.89263 26.7312C0.813505 23.455 -0.160161 19.5586 0.146719 15.7082C0.470299 11.65 2.20983 7.84317 5.04518 4.98887C8.24035 1.77242 12.5184 0.000976562 17.0915 0.000976562C21.8289 0.000976562 26.3056 1.88126 29.697 5.29537C33.027 8.6477 34.8942 13.0729 34.9547 17.756ZM28.7839 28.8864C31.7075 25.9434 33.2876 21.9985 33.2331 17.7785C33.1786 13.5498 31.4904 9.55179 28.4795 6.52087C25.4133 3.43407 21.369 1.73412 17.0915 1.73412C12.9783 1.73412 9.13249 3.32531 6.26254 6.21446C1.05402 11.4577 0.3398 19.8362 4.56433 26.1366C4.71936 26.3679 4.75431 26.6603 4.65816 26.9221L2.35978 33.1762L8.33693 30.6242C8.44479 30.5781 8.55911 30.5554 8.67299 30.5554C8.83887 30.5554 9.0038 30.6035 9.14653 30.6982C11.7787 32.4436 14.825 33.3662 17.956 33.3663C22.0687 33.3663 25.9141 31.7754 28.7839 28.8864ZM26.6419 21.0874C27.5373 21.5947 28.1288 21.9297 28.1287 23.1887C28.1287 24.0055 27.3605 25.1526 26.5991 25.9352C25.4933 27.072 24.2161 27.6914 23.0028 27.6914H23.0015C19.7017 27.6914 15.9176 25.8437 12.6193 22.6133C12.6136 22.6077 12.6081 22.6062 12.6026 22.6007C9.39367 19.2803 7.55204 15.473 7.54989 12.1511C7.54989 10.928 8.17226 9.64269 9.30216 8.52941C10.0796 7.76354 11.2275 6.99125 12.0393 6.99125C13.2901 6.99125 13.623 7.58702 14.1268 8.48842C14.2496 8.70801 14.3887 8.95715 14.5687 9.25828C14.6684 9.4244 14.8058 9.63507 14.9512 9.85812C15.8752 11.2753 16.4571 12.2664 16.1396 13.0951C15.8907 13.7401 15.2321 14.2694 14.5952 14.7813C14.3595 14.9708 14.0216 15.2423 13.8719 15.4064C13.9875 16.0536 14.8296 17.4234 16.298 18.9016C17.7646 20.378 19.1238 21.2256 19.7682 21.3436C19.9306 21.1927 20.1983 20.8551 20.3854 20.6193C20.8958 19.9757 21.4235 19.3101 22.0662 19.0609C22.2144 19.0034 22.3769 18.9741 22.5487 18.9741C23.2823 18.9741 24.1441 19.506 25.2814 20.2575C25.5029 20.4038 25.712 20.5421 25.8783 20.6432C26.1763 20.8237 26.4237 20.9638 26.6419 21.0874Z" fill="#5CBB3D"/>
</svg>
